<?xml version="1.0" encoding="utf-8" standalone="no"?>
<!DOCTYPE svg PUBLIC "-//W3C//DTD SVG 1.1//EN"
  "http://www.w3.org/Graphics/SVG/1.1/DTD/svg11.dtd">
<svg xmlns:xlink="http://www.w3.org/1999/xlink" width="568.495625pt" height="336.634375pt" viewBox="0 0 568.495625 336.634375" xmlns="http://www.w3.org/2000/svg" version="1.1">
 <metadata>
  <rdf:RDF xmlns:dc="http://purl.org/dc/elements/1.1/" xmlns:cc="http://creativecommons.org/ns#" xmlns:rdf="http://www.w3.org/1999/02/22-rdf-syntax-ns#">
   <cc:Work>
    <dc:type rdf:resource="http://purl.org/dc/dcmitype/StillImage"/>
    <dc:date>2026-05-01T00:52:29.457913</dc:date>
    <dc:format>image/svg+xml</dc:format>
    <dc:creator>
     <cc:Agent>
      <dc:title>Matplotlib v3.10.8, https://matplotlib.org/</dc:title>
     </cc:Agent>
    </dc:creator>
   </cc:Work>
  </rdf:RDF>
 </metadata>
 <defs>
  <style type="text/css">*{stroke-linejoin: round; stroke-linecap: butt}</style>
 </defs>
 <g id="figure_1">
  <g id="patch_1">
   <path d="M 0 336.634375
L 568.495625 336.634375
L 568.495625 0
L 0 0
z
" style="fill: #ffffff"/>
  </g>
  <g id="axes_1">
   <g id="patch_2">
    <path d="M 46.965625 299.078125
L 561.295625 299.078125
L 561.295625 22.318125
L 46.965625 22.318125
z
" style="fill: #ffffff"/>
   </g>
   <g id="FillBetweenPolyCollection_1">
    <defs>
     <path id="m3a285fccde" d="M 70.344261 -50.13625
L 70.344261 -50.639396
L 70.920838 -54.664561
L 71.497415 -58.312368
L 72.073992 -59.293502
L 72.650569 -59.26591
L 73.227146 -63.858406
L 73.803723 -65.347139
L 74.3803 -64.833401
L 74.956877 -68.638791
L 75.533454 -70.648601
L 76.110031 -73.951814
L 76.686608 -73.995949
L 77.263185 -72.999288
L 77.839762 -75.792268
L 78.416338 -76.815146
L 78.992915 -78.006314
L 79.569492 -81.623433
L 80.146069 -83.727622
L 80.722646 -83.240326
L 81.299223 -85.126094
L 81.8758 -84.117274
L 82.452377 -85.645725
L 83.028954 -86.683871
L 83.605531 -89.660588
L 84.182108 -91.764124
L 84.758685 -93.520615
L 85.335262 -93.305935
L 85.911839 -93.535469
L 86.488416 -92.236841
L 87.064992 -93.322598
L 87.641569 -92.060375
L 88.218146 -95.612327
L 88.794723 -96.06068
L 89.3713 -98.148447
L 89.947877 -102.683122
L 90.524454 -104.320498
L 91.101031 -104.918382
L 91.677608 -105.756998
L 92.254185 -108.29367
L 92.830762 -109.229822
L 93.407339 -105.485739
L 93.983916 -102.657909
L 94.560493 -105.57538
L 95.13707 -104.379204
L 95.713646 -105.913097
L 96.290223 -106.404712
L 96.8668 -107.359842
L 97.443377 -108.553182
L 98.019954 -110.250596
L 98.596531 -109.757041
L 99.173108 -112.181099
L 99.749685 -109.909526
L 100.326262 -108.808454
L 100.902839 -109.010542
L 101.479416 -108.840163
L 102.055993 -107.642136
L 102.63257 -108.618586
L 103.209147 -108.084205
L 103.785724 -108.897094
L 104.3623 -109.517255
L 104.938877 -112.104739
L 105.515454 -113.116616
L 106.092031 -114.079335
L 106.668608 -115.129891
L 107.245185 -116.048339
L 107.821762 -116.463466
L 108.398339 -114.251032
L 108.974916 -115.091827
L 109.551493 -117.008336
L 110.12807 -118.100055
L 110.704647 -119.331571
L 111.281224 -119.450321
L 111.857801 -119.223003
L 112.434378 -120.391759
L 113.010954 -124.108748
L 113.587531 -122.964841
L 114.164108 -124.129549
L 114.740685 -124.791614
L 115.317262 -126.842877
L 115.893839 -128.476632
L 116.470416 -130.217571
L 117.046993 -127.380203
L 117.62357 -124.399683
L 118.200147 -124.130574
L 118.776724 -124.828789
L 119.353301 -126.586536
L 119.929878 -123.792811
L 120.506455 -123.940448
L 121.083032 -125.060952
L 121.659609 -125.175519
L 122.236185 -125.825305
L 122.812762 -126.433074
L 123.389339 -126.706177
L 123.965916 -128.407406
L 124.542493 -128.09569
L 125.11907 -129.288472
L 125.695647 -126.599333
L 126.272224 -125.81229
L 126.848801 -129.687351
L 127.425378 -129.992268
L 128.001955 -129.749215
L 128.578532 -133.142002
L 129.155109 -136.01273
L 129.731686 -134.727623
L 130.308263 -138.119858
L 130.884839 -138.306322
L 131.461416 -138.434572
L 132.037993 -137.536342
L 132.61457 -136.687684
L 133.191147 -136.461106
L 133.767724 -137.839108
L 134.344301 -140.106999
L 134.920878 -140.214217
L 135.497455 -140.933027
L 136.074032 -142.727766
L 136.650609 -143.011813
L 137.227186 -141.657232
L 137.803763 -141.815921
L 138.38034 -141.993548
L 138.956917 -142.211916
L 139.533493 -142.593479
L 140.11007 -143.382389
L 140.686647 -142.24332
L 141.263224 -140.454687
L 141.839801 -138.68791
L 142.416378 -139.952358
L 142.992955 -143.787699
L 143.569532 -142.486888
L 144.146109 -141.725456
L 144.722686 -144.989085
L 145.299263 -146.265736
L 145.87584 -147.503405
L 146.452417 -147.232183
L 147.028994 -147.419577
L 147.605571 -149.515952
L 148.182147 -148.265986
L 148.758724 -151.089073
L 149.335301 -152.794655
L 149.911878 -153.556353
L 150.488455 -155.262429
L 151.065032 -154.963248
L 151.641609 -152.656944
L 152.218186 -150.384459
L 152.794763 -150.139349
L 153.37134 -148.326638
L 153.947917 -148.100791
L 154.524494 -150.344469
L 155.101071 -150.084115
L 155.677648 -152.794024
L 156.254225 -152.027328
L 156.830801 -153.319977
L 157.407378 -155.073578
L 157.983955 -153.349474
L 158.560532 -155.634727
L 159.137109 -156.435316
L 159.713686 -156.669725
L 160.290263 -156.434318
L 160.86684 -157.706047
L 161.443417 -157.98006
L 162.019994 -159.229539
L 162.596571 -157.997055
L 163.173148 -159.734381
L 163.749725 -158.468457
L 164.326302 -158.227533
L 164.902879 -160.998057
L 165.479455 -161.790232
L 166.056032 -164.559004
L 166.632609 -167.307526
L 167.209186 -168.583468
L 167.785763 -167.827409
L 168.36234 -170.104008
L 168.938917 -172.896969
L 169.515494 -174.136243
L 170.092071 -173.391556
L 170.668648 -174.129364
L 171.245225 -174.879927
L 171.821802 -176.14023
L 172.398379 -176.389009
L 172.974956 -177.652109
L 173.551533 -176.361738
L 174.12811 -177.114712
L 174.704686 -180.420378
L 175.281263 -183.184719
L 175.85784 -183.456796
L 176.434417 -180.165859
L 177.010994 -178.902872
L 177.587571 -178.661493
L 178.164148 -176.912749
L 178.740725 -175.668365
L 179.317302 -177.429533
L 179.893879 -178.691051
L 180.470456 -179.951679
L 181.047033 -180.718441
L 181.62361 -178.963453
L 182.200187 -180.716531
L 182.776764 -180.47434
L 183.35334 -179.734816
L 183.929917 -178.506244
L 184.506494 -176.796053
L 185.083071 -177.53802
L 185.659648 -174.314071
L 186.236225 -176.522816
L 186.812802 -179.734706
L 187.389379 -181.494195
L 187.965956 -183.765527
L 188.542533 -182.546836
L 189.11911 -182.826941
L 189.695687 -185.559038
L 190.272264 -185.814967
L 190.848841 -184.552724
L 191.425418 -184.833997
L 192.001994 -183.095747
L 192.578571 -181.37221
L 193.155148 -183.135281
L 193.731725 -182.898907
L 194.308302 -186.134911
L 194.884879 -188.393594
L 195.461456 -188.147996
L 196.038033 -188.900681
L 196.61461 -191.155644
L 197.191187 -193.88662
L 197.767764 -194.106434
L 198.344341 -195.318885
L 198.920918 -196.589663
L 199.497495 -197.301636
L 200.074072 -196.541498
L 200.650648 -196.788059
L 201.227225 -199.006918
L 201.803802 -198.768527
L 202.380379 -196.95198
L 202.956956 -197.649533
L 203.533533 -196.842002
L 204.11011 -196.571317
L 204.686687 -196.324464
L 205.263264 -197.523942
L 205.839841 -196.240315
L 206.416418 -194.544626
L 206.992995 -196.768275
L 207.569572 -197.543595
L 208.146149 -196.768006
L 208.722726 -193.988797
L 209.299302 -194.229564
L 209.875879 -192.456383
L 210.452456 -192.701436
L 211.029033 -193.458438
L 211.60561 -192.217288
L 212.182187 -195.000148
L 212.758764 -193.211389
L 213.335341 -193.49019
L 213.911918 -191.743938
L 214.488495 -190.936141
L 215.065072 -191.738019
L 215.641649 -191.507317
L 216.218226 -191.725724
L 216.794803 -195.993724
L 217.37138 -195.711899
L 217.947957 -195.064791
L 218.524533 -195.848097
L 219.10111 -196.633592
L 219.677687 -197.794199
L 220.254264 -198.615693
L 220.830841 -198.258482
L 221.407418 -197.574692
L 221.983995 -196.828922
L 222.560572 -197.638518
L 223.137149 -197.877717
L 223.713726 -196.65351
L 224.290303 -194.83008
L 224.86688 -195.569965
L 225.443457 -196.232778
L 226.020034 -194.452519
L 226.596611 -195.580811
L 227.173187 -193.423007
L 227.749764 -192.570865
L 228.326341 -191.869362
L 228.902918 -194.101
L 229.479495 -194.837102
L 230.056072 -196.6383
L 230.632649 -196.811667
L 231.209226 -198.349931
L 231.785803 -195.624082
L 232.36238 -197.219238
L 232.938957 -196.939024
L 233.515534 -195.555417
L 234.092111 -195.782385
L 234.668688 -196.698204
L 235.245265 -193.962258
L 235.821841 -197.288953
L 236.398418 -197.152717
L 236.974995 -197.820858
L 237.551572 -200.583412
L 238.128149 -200.748102
L 238.704726 -200.611889
L 239.281303 -200.970803
L 239.85788 -199.510483
L 240.434457 -198.901758
L 241.011034 -196.046851
L 241.587611 -196.851854
L 242.164188 -195.94199
L 242.740765 -197.524013
L 243.317342 -197.860085
L 243.893919 -199.537093
L 244.470495 -201.314742
L 245.047072 -202.923215
L 245.623649 -200.500652
L 246.200226 -200.224
L 246.776803 -200.89399
L 247.35338 -202.167569
L 247.929957 -202.906102
L 248.506534 -200.722905
L 249.083111 -204.085575
L 249.659688 -203.957433
L 250.236265 -204.658258
L 250.812842 -207.949216
L 251.389419 -210.335662
L 251.965996 -212.549441
L 252.542573 -212.383271
L 253.119149 -212.687483
L 253.695726 -212.489217
L 254.272303 -213.262566
L 254.84888 -211.448997
L 255.425457 -211.719705
L 256.002034 -213.965527
L 256.578611 -212.614675
L 257.155188 -212.961034
L 257.731765 -214.200238
L 258.308342 -215.400471
L 258.884919 -217.607236
L 259.461496 -216.986995
L 260.038073 -217.336255
L 260.61465 -214.551405
L 261.191227 -216.095437
L 261.767804 -218.019778
L 262.34438 -218.088352
L 262.920957 -216.927382
L 263.497534 -218.469266
L 264.074111 -217.300227
L 264.650688 -216.350012
L 265.227265 -216.160214
L 265.803842 -216.470914
L 266.380419 -216.779714
L 266.956996 -216.922216
L 267.533573 -216.308471
L 268.11015 -217.964323
L 268.686727 -216.932183
L 269.263304 -219.679218
L 269.839881 -218.810829
L 270.416458 -219.583725
L 270.993034 -221.868457
L 271.569611 -223.053733
L 272.146188 -223.824705
L 272.722765 -223.589834
L 273.299342 -223.771627
L 273.875919 -225.918583
L 274.452496 -226.143955
L 275.029073 -227.920599
L 275.60565 -229.616072
L 276.182227 -228.379401
L 276.758804 -232.274542
L 277.335381 -231.309515
L 277.911958 -230.575821
L 278.488535 -231.118081
L 279.065112 -233.309951
L 279.641688 -233.679175
L 280.218265 -231.150263
L 280.794842 -229.408525
L 281.371419 -226.7987
L 281.947996 -227.023717
L 282.524573 -227.295974
L 283.10115 -225.597943
L 283.677727 -227.228661
L 284.254304 -226.991858
L 284.830881 -226.259008
L 285.407458 -223.107142
L 285.984035 -224.141768
L 286.560612 -223.809953
L 287.137189 -222.870919
L 287.713766 -224.655563
L 288.290342 -225.48743
L 288.866919 -222.847822
L 289.443496 -223.788398
L 290.020073 -223.615994
L 290.59665 -220.714116
L 291.173227 -220.435122
L 291.749804 -219.201147
L 292.326381 -217.355035
L 292.902958 -214.785004
L 293.479535 -215.904668
L 294.056112 -214.444557
L 294.632689 -216.348785
L 295.209266 -220.554363
L 295.785843 -222.180943
L 296.36242 -220.829984
L 296.938996 -222.906395
L 297.515573 -222.329346
L 298.09215 -223.728985
L 298.668727 -223.26727
L 299.245304 -225.830315
L 299.821881 -224.983505
L 300.398458 -225.417111
L 300.975035 -225.809077
L 301.551612 -225.349021
L 302.128189 -224.100377
L 302.704766 -224.18964
L 303.281343 -225.143243
L 303.85792 -225.528257
L 304.434497 -227.260306
L 305.011074 -227.236552
L 305.58765 -228.453706
L 306.164227 -227.77711
L 306.740804 -229.452259
L 307.317381 -230.217165
L 307.893958 -229.891065
L 308.470535 -232.453515
L 309.047112 -233.053225
L 309.623689 -234.148416
L 310.200266 -234.597483
L 310.776843 -234.614265
L 311.35342 -234.830387
L 311.929997 -235.428672
L 312.506574 -234.753141
L 313.083151 -236.286121
L 313.659728 -238.010808
L 314.236305 -241.450389
L 314.812881 -241.072343
L 315.389458 -241.722171
L 315.966035 -239.405635
L 316.542612 -239.756234
L 317.119189 -240.854611
L 317.695766 -243.526819
L 318.272343 -243.985265
L 318.84892 -245.894812
L 319.425497 -250.166726
L 320.002074 -252.592859
L 320.578651 -253.692606
L 321.155228 -252.147653
L 321.731805 -251.353364
L 322.308382 -251.620226
L 322.884959 -253.166747
L 323.461535 -255.460167
L 324.038112 -255.93565
L 324.614689 -255.204617
L 325.191266 -256.113444
L 325.767843 -254.114631
L 326.34442 -253.179003
L 326.920997 -252.892439
L 327.497574 -253.476372
L 328.074151 -251.860389
L 328.650728 -250.435791
L 329.227305 -250.077269
L 329.803882 -250.961663
L 330.380459 -249.914781
L 330.957036 -249.685653
L 331.533613 -248.185383
L 332.110189 -249.978156
L 332.686766 -249.625597
L 333.263343 -250.263552
L 333.83992 -250.536819
L 334.416497 -246.770023
L 334.993074 -245.459036
L 335.569651 -244.788053
L 336.146228 -246.953145
L 336.722805 -248.390684
L 337.299382 -248.428159
L 337.875959 -249.074308
L 338.452536 -251.002378
L 339.029113 -251.203908
L 339.60569 -249.736241
L 340.182267 -250.661797
L 340.758843 -253.606609
L 341.33542 -251.868085
L 341.911997 -250.994544
L 342.488574 -249.471674
L 343.065151 -248.539551
L 343.641728 -248.533099
L 344.218305 -249.250259
L 344.794882 -249.969929
L 345.371459 -247.51964
L 345.948036 -247.804555
L 346.524613 -247.150421
L 347.10119 -247.507345
L 347.677767 -247.72151
L 348.254344 -248.224238
L 348.830921 -249.297747
L 349.407497 -251.809732
L 349.984074 -254.257585
L 350.560651 -253.824753
L 351.137228 -253.249809
L 351.713805 -253.607953
L 352.290382 -254.325059
L 352.866959 -255.26225
L 353.443536 -253.886744
L 354.020113 -255.02184
L 354.59669 -254.648584
L 355.173267 -256.803766
L 355.749844 -255.995796
L 356.326421 -253.686571
L 356.902998 -256.11699
L 357.479575 -254.940241
L 358.056152 -252.001811
L 358.632728 -252.847121
L 359.209305 -250.802952
L 359.785882 -250.921323
L 360.362459 -253.065314
L 360.939036 -255.870532
L 361.515613 -253.700589
L 362.09219 -254.687667
L 362.668767 -254.384625
L 363.245344 -254.283802
L 363.821921 -256.436523
L 364.398498 -259.526982
L 364.975075 -258.798914
L 365.551652 -260.940199
L 366.128229 -259.859304
L 366.704806 -262.665223
L 367.281382 -263.025341
L 367.857959 -263.078138
L 368.434536 -262.85972
L 369.011113 -264.113493
L 369.58769 -264.315921
L 370.164267 -262.791018
L 370.740844 -262.102866
L 371.317421 -261.604059
L 371.893998 -261.207552
L 372.470575 -258.964594
L 373.047152 -260.339899
L 373.623729 -263.270627
L 374.200306 -262.11062
L 374.776883 -263.666781
L 375.35346 -263.223662
L 375.930036 -262.147145
L 376.506613 -261.426161
L 377.08319 -264.659286
L 377.659767 -262.902531
L 378.236344 -259.989562
L 378.812921 -259.336579
L 379.389498 -258.187233
L 379.966075 -257.288019
L 380.542652 -255.548623
L 381.119229 -254.145525
L 381.695806 -255.352033
L 382.272383 -254.959161
L 382.84896 -253.816614
L 383.425537 -253.43324
L 384.002114 -253.217442
L 384.57869 -252.416593
L 385.155267 -253.125045
L 385.731844 -256.704177
L 386.308421 -258.258692
L 386.884998 -256.868582
L 387.461575 -257.072916
L 388.038152 -257.444774
L 388.614729 -256.974241
L 389.191306 -256.576922
L 389.767883 -256.948762
L 390.34446 -258.921745
L 390.921037 -259.037949
L 391.497614 -257.035565
L 392.074191 -255.899792
L 392.650768 -253.493908
L 393.227344 -253.528416
L 393.803921 -256.01254
L 394.380498 -253.853792
L 394.957075 -253.632981
L 395.533652 -254.74792
L 396.110229 -257.060339
L 396.686806 -258.362045
L 397.263383 -259.326208
L 397.83996 -258.874491
L 398.416537 -260.148638
L 398.993114 -260.115616
L 399.569691 -262.249303
L 400.146268 -265.072795
L 400.722845 -265.201773
L 401.299422 -262.617092
L 401.875998 -260.463787
L 402.452575 -260.688521
L 403.029152 -259.88181
L 403.605729 -262.780544
L 404.182306 -261.883642
L 404.758883 -263.012243
L 405.33546 -264.818001
L 405.912037 -264.007406
L 406.488614 -263.737769
L 407.065191 -263.853184
L 407.641768 -264.649868
L 408.218345 -264.17412
L 408.794922 -265.573932
L 409.371499 -264.910039
L 409.948076 -262.856734
L 410.524653 -262.088208
L 411.101229 -261.016753
L 411.677806 -260.621301
L 412.254383 -261.098638
L 412.83096 -262.621026
L 413.407537 -265.021239
L 413.984114 -263.711592
L 414.560691 -264.004491
L 415.137268 -263.144806
L 415.713845 -263.350522
L 416.290422 -259.254036
L 416.866999 -259.593582
L 417.443576 -257.601734
L 418.020153 -257.988003
L 418.59673 -257.455321
L 419.173307 -259.447387
L 419.749883 -257.819682
L 420.32646 -257.291154
L 420.903037 -257.907095
L 421.479614 -257.240129
L 422.056191 -258.811971
L 422.632768 -256.356898
L 423.209345 -259.303967
L 423.785922 -255.844558
L 424.362499 -256.737798
L 424.939076 -256.903687
L 425.515653 -256.099711
L 426.09223 -255.264012
L 426.668807 -253.738088
L 427.245384 -253.248943
L 427.821961 -255.465657
L 428.398537 -256.864684
L 428.975114 -257.506695
L 429.551691 -257.20289
L 430.128268 -255.80005
L 430.704845 -256.795414
L 431.281422 -255.67721
L 431.857999 -255.662073
L 432.434576 -257.373649
L 433.011153 -255.968891
L 433.58773 -254.253687
L 434.164307 -254.648896
L 434.740884 -254.230284
L 435.317461 -255.323025
L 435.894038 -256.222719
L 436.470615 -257.025708
L 437.047191 -258.235299
L 437.623768 -258.825591
L 438.200345 -257.211154
L 438.776922 -258.129301
L 439.353499 -258.429484
L 439.930076 -258.130308
L 440.506653 -255.426904
L 441.08323 -256.845267
L 441.659807 -256.641379
L 442.236384 -254.828683
L 442.812961 -257.142721
L 443.389538 -257.541861
L 443.966115 -257.644997
L 444.542692 -258.556415
L 445.119269 -258.955412
L 445.695845 -261.970375
L 446.272422 -259.952185
L 446.848999 -260.864176
L 447.425576 -260.167101
L 448.002153 -261.376204
L 448.57873 -262.178933
L 449.155307 -258.856041
L 449.731884 -259.051597
L 450.308461 -259.25228
L 450.885038 -260.050299
L 451.461615 -263.177763
L 452.038192 -262.978196
L 452.614769 -264.190238
L 453.191346 -265.292261
L 453.767923 -262.977365
L 454.3445 -264.285315
L 454.921076 -265.183958
L 455.497653 -266.287185
L 456.07423 -266.68425
L 456.650807 -266.687244
L 457.227384 -269.403652
L 457.803961 -270.810265
L 458.380538 -271.315373
L 458.957115 -270.207684
L 459.533692 -270.105564
L 460.110269 -269.398093
L 460.686846 -269.899737
L 461.263423 -271.008603
L 461.84 -272.620418
L 462.416577 -272.117236
L 462.993154 -272.92046
L 463.56973 -272.013754
L 464.146307 -272.518781
L 464.722884 -270.306304
L 465.299461 -268.800461
L 465.876038 -269.005704
L 466.452615 -270.012903
L 467.029192 -270.317022
L 467.605769 -271.42333
L 468.182346 -271.52615
L 468.758923 -268.711301
L 469.3355 -268.210759
L 469.912077 -267.909789
L 470.488654 -270.225353
L 471.065231 -269.619248
L 471.641808 -268.114782
L 472.218384 -268.31665
L 472.794961 -268.024764
L 473.371538 -267.027481
L 473.948115 -267.732767
L 474.524692 -270.241694
L 475.101269 -272.049238
L 475.677846 -271.247639
L 476.254423 -271.55115
L 476.831 -269.954286
L 477.407577 -271.058058
L 477.984154 -270.554017
L 478.560731 -271.860934
L 479.137308 -271.066607
L 479.713885 -271.076504
L 480.290462 -274.693465
L 480.867038 -276.896872
L 481.443615 -276.800768
L 482.020192 -274.988899
L 482.596769 -273.479337
L 483.173346 -276.396579
L 483.749923 -275.795437
L 484.3265 -276.407272
L 484.903077 -277.704285
L 485.479654 -277.298717
L 486.056231 -279.00885
L 486.632808 -278.308207
L 487.209385 -281.524103
L 487.785962 -281.52517
L 488.362539 -281.933078
L 488.939116 -281.238286
L 489.515692 -281.942434
L 490.092269 -281.942306
L 490.668846 -284.549888
L 491.245423 -282.744447
L 491.822 -280.230466
L 492.398577 -280.730609
L 492.975154 -280.520004
L 493.551731 -281.426009
L 494.128308 -284.652383
L 494.704885 -283.546443
L 495.281462 -282.945488
L 495.858039 -282.130131
L 496.434616 -281.83239
L 497.011193 -280.927622
L 497.58777 -282.528216
L 498.164347 -283.631735
L 498.740923 -282.311556
L 499.3175 -281.709741
L 499.894077 -281.92244
L 500.470654 -283.732861
L 501.047231 -286.24294
L 501.623808 -285.647081
L 502.200385 -287.848928
L 502.776962 -287.960418
L 503.353539 -287.156515
L 503.930116 -286.957162
L 504.506693 -287.454106
L 505.08327 -286.749612
L 505.659847 -286.04804
L 506.236424 -286.942893
L 506.813001 -288.356273
L 507.389577 -289.473015
L 507.966154 -288.964575
L 508.542731 -290.866979
L 509.119308 -290.668185
L 509.695885 -291.266961
L 510.272462 -290.270137
L 510.849039 -293.17687
L 511.425616 -293.376289
L 512.002193 -295.187694
L 512.57877 -293.079621
L 513.155347 -291.770767
L 513.731924 -292.163409
L 514.308501 -292.156966
L 514.885078 -293.866157
L 515.461655 -294.67264
L 516.038231 -296.78122
L 516.614808 -297.291556
L 517.191385 -298.097628
L 517.767962 -300.103057
L 518.344539 -299.400068
L 518.921116 -298.400989
L 519.497693 -299.903451
L 520.07427 -300.916936
L 520.650847 -299.696524
L 521.227424 -299.896364
L 521.804001 -299.001205
L 522.380578 -300.132843
L 522.957155 -301.73625
L 523.533732 -300.323814
L 524.110309 -297.299
L 524.686885 -298.815373
L 525.263462 -298.422731
L 525.840039 -297.203092
L 526.416616 -296.29328
L 526.993193 -295.279752
L 527.56977 -293.674683
L 528.146347 -293.667132
L 528.722924 -296.486324
L 529.299501 -297.604267
L 529.876078 -299.312591
L 530.452655 -297.812248
L 531.029232 -296.712209
L 531.605809 -297.101724
L 532.182386 -295.792351
L 532.758963 -293.496087
L 533.335539 -291.371888
L 533.912116 -292.388235
L 534.488693 -294.409359
L 535.06527 -296.6175
L 535.641847 -296.295507
L 536.218424 -298.802593
L 536.795001 -298.100278
L 537.371578 -298.404054
L 537.916989 -300.823398
L 537.916989 -50.13625
L 537.916989 -50.13625
L 537.371578 -50.13625
L 536.795001 -50.13625
L 536.218424 -50.13625
L 535.641847 -50.13625
L 535.06527 -50.13625
L 534.488693 -50.13625
L 533.912116 -50.13625
L 533.335539 -50.13625
L 532.758963 -50.13625
L 532.182386 -50.13625
L 531.605809 -50.13625
L 531.029232 -50.13625
L 530.452655 -50.13625
L 529.876078 -50.13625
L 529.299501 -50.13625
L 528.722924 -50.13625
L 528.146347 -50.13625
L 527.56977 -50.13625
L 526.993193 -50.13625
L 526.416616 -50.13625
L 525.840039 -50.13625
L 525.263462 -50.13625
L 524.686885 -50.13625
L 524.110309 -50.13625
L 523.533732 -50.13625
L 522.957155 -50.13625
L 522.380578 -50.13625
L 521.804001 -50.13625
L 521.227424 -50.13625
L 520.650847 -50.13625
L 520.07427 -50.13625
L 519.497693 -50.13625
L 518.921116 -50.13625
L 518.344539 -50.13625
L 517.767962 -50.13625
L 517.191385 -50.13625
L 516.614808 -50.13625
L 516.038231 -50.13625
L 515.461655 -50.13625
L 514.885078 -50.13625
L 514.308501 -50.13625
L 513.731924 -50.13625
L 513.155347 -50.13625
L 512.57877 -50.13625
L 512.002193 -50.13625
L 511.425616 -50.13625
L 510.849039 -50.13625
L 510.272462 -50.13625
L 509.695885 -50.13625
L 509.119308 -50.13625
L 508.542731 -50.13625
L 507.966154 -50.13625
L 507.389577 -50.13625
L 506.813001 -50.13625
L 506.236424 -50.13625
L 505.659847 -50.13625
L 505.08327 -50.13625
L 504.506693 -50.13625
L 503.930116 -50.13625
L 503.353539 -50.13625
L 502.776962 -50.13625
L 502.200385 -50.13625
L 501.623808 -50.13625
L 501.047231 -50.13625
L 500.470654 -50.13625
L 499.894077 -50.13625
L 499.3175 -50.13625
L 498.740923 -50.13625
L 498.164347 -50.13625
L 497.58777 -50.13625
L 497.011193 -50.13625
L 496.434616 -50.13625
L 495.858039 -50.13625
L 495.281462 -50.13625
L 494.704885 -50.13625
L 494.128308 -50.13625
L 493.551731 -50.13625
L 492.975154 -50.13625
L 492.398577 -50.13625
L 491.822 -50.13625
L 491.245423 -50.13625
L 490.668846 -50.13625
L 490.092269 -50.13625
L 489.515692 -50.13625
L 488.939116 -50.13625
L 488.362539 -50.13625
L 487.785962 -50.13625
L 487.209385 -50.13625
L 486.632808 -50.13625
L 486.056231 -50.13625
L 485.479654 -50.13625
L 484.903077 -50.13625
L 484.3265 -50.13625
L 483.749923 -50.13625
L 483.173346 -50.13625
L 482.596769 -50.13625
L 482.020192 -50.13625
L 481.443615 -50.13625
L 480.867038 -50.13625
L 480.290462 -50.13625
L 479.713885 -50.13625
L 479.137308 -50.13625
L 478.560731 -50.13625
L 477.984154 -50.13625
L 477.407577 -50.13625
L 476.831 -50.13625
L 476.254423 -50.13625
L 475.677846 -50.13625
L 475.101269 -50.13625
L 474.524692 -50.13625
L 473.948115 -50.13625
L 473.371538 -50.13625
L 472.794961 -50.13625
L 472.218384 -50.13625
L 471.641808 -50.13625
L 471.065231 -50.13625
L 470.488654 -50.13625
L 469.912077 -50.13625
L 469.3355 -50.13625
L 468.758923 -50.13625
L 468.182346 -50.13625
L 467.605769 -50.13625
L 467.029192 -50.13625
L 466.452615 -50.13625
L 465.876038 -50.13625
L 465.299461 -50.13625
L 464.722884 -50.13625
L 464.146307 -50.13625
L 463.56973 -50.13625
L 462.993154 -50.13625
L 462.416577 -50.13625
L 461.84 -50.13625
L 461.263423 -50.13625
L 460.686846 -50.13625
L 460.110269 -50.13625
L 459.533692 -50.13625
L 458.957115 -50.13625
L 458.380538 -50.13625
L 457.803961 -50.13625
L 457.227384 -50.13625
L 456.650807 -50.13625
L 456.07423 -50.13625
L 455.497653 -50.13625
L 454.921076 -50.13625
L 454.3445 -50.13625
L 453.767923 -50.13625
L 453.191346 -50.13625
L 452.614769 -50.13625
L 452.038192 -50.13625
L 451.461615 -50.13625
L 450.885038 -50.13625
L 450.308461 -50.13625
L 449.731884 -50.13625
L 449.155307 -50.13625
L 448.57873 -50.13625
L 448.002153 -50.13625
L 447.425576 -50.13625
L 446.848999 -50.13625
L 446.272422 -50.13625
L 445.695845 -50.13625
L 445.119269 -50.13625
L 444.542692 -50.13625
L 443.966115 -50.13625
L 443.389538 -50.13625
L 442.812961 -50.13625
L 442.236384 -50.13625
L 441.659807 -50.13625
L 441.08323 -50.13625
L 440.506653 -50.13625
L 439.930076 -50.13625
L 439.353499 -50.13625
L 438.776922 -50.13625
L 438.200345 -50.13625
L 437.623768 -50.13625
L 437.047191 -50.13625
L 436.470615 -50.13625
L 435.894038 -50.13625
L 435.317461 -50.13625
L 434.740884 -50.13625
L 434.164307 -50.13625
L 433.58773 -50.13625
L 433.011153 -50.13625
L 432.434576 -50.13625
L 431.857999 -50.13625
L 431.281422 -50.13625
L 430.704845 -50.13625
L 430.128268 -50.13625
L 429.551691 -50.13625
L 428.975114 -50.13625
L 428.398537 -50.13625
L 427.821961 -50.13625
L 427.245384 -50.13625
L 426.668807 -50.13625
L 426.09223 -50.13625
L 425.515653 -50.13625
L 424.939076 -50.13625
L 424.362499 -50.13625
L 423.785922 -50.13625
L 423.209345 -50.13625
L 422.632768 -50.13625
L 422.056191 -50.13625
L 421.479614 -50.13625
L 420.903037 -50.13625
L 420.32646 -50.13625
L 419.749883 -50.13625
L 419.173307 -50.13625
L 418.59673 -50.13625
L 418.020153 -50.13625
L 417.443576 -50.13625
L 416.866999 -50.13625
L 416.290422 -50.13625
L 415.713845 -50.13625
L 415.137268 -50.13625
L 414.560691 -50.13625
L 413.984114 -50.13625
L 413.407537 -50.13625
L 412.83096 -50.13625
L 412.254383 -50.13625
L 411.677806 -50.13625
L 411.101229 -50.13625
L 410.524653 -50.13625
L 409.948076 -50.13625
L 409.371499 -50.13625
L 408.794922 -50.13625
L 408.218345 -50.13625
L 407.641768 -50.13625
L 407.065191 -50.13625
L 406.488614 -50.13625
L 405.912037 -50.13625
L 405.33546 -50.13625
L 404.758883 -50.13625
L 404.182306 -50.13625
L 403.605729 -50.13625
L 403.029152 -50.13625
L 402.452575 -50.13625
L 401.875998 -50.13625
L 401.299422 -50.13625
L 400.722845 -50.13625
L 400.146268 -50.13625
L 399.569691 -50.13625
L 398.993114 -50.13625
L 398.416537 -50.13625
L 397.83996 -50.13625
L 397.263383 -50.13625
L 396.686806 -50.13625
L 396.110229 -50.13625
L 395.533652 -50.13625
L 394.957075 -50.13625
L 394.380498 -50.13625
L 393.803921 -50.13625
L 393.227344 -50.13625
L 392.650768 -50.13625
L 392.074191 -50.13625
L 391.497614 -50.13625
L 390.921037 -50.13625
L 390.34446 -50.13625
L 389.767883 -50.13625
L 389.191306 -50.13625
L 388.614729 -50.13625
L 388.038152 -50.13625
L 387.461575 -50.13625
L 386.884998 -50.13625
L 386.308421 -50.13625
L 385.731844 -50.13625
L 385.155267 -50.13625
L 384.57869 -50.13625
L 384.002114 -50.13625
L 383.425537 -50.13625
L 382.84896 -50.13625
L 382.272383 -50.13625
L 381.695806 -50.13625
L 381.119229 -50.13625
L 380.542652 -50.13625
L 379.966075 -50.13625
L 379.389498 -50.13625
L 378.812921 -50.13625
L 378.236344 -50.13625
L 377.659767 -50.13625
L 377.08319 -50.13625
L 376.506613 -50.13625
L 375.930036 -50.13625
L 375.35346 -50.13625
L 374.776883 -50.13625
L 374.200306 -50.13625
L 373.623729 -50.13625
L 373.047152 -50.13625
L 372.470575 -50.13625
L 371.893998 -50.13625
L 371.317421 -50.13625
L 370.740844 -50.13625
L 370.164267 -50.13625
L 369.58769 -50.13625
L 369.011113 -50.13625
L 368.434536 -50.13625
L 367.857959 -50.13625
L 367.281382 -50.13625
L 366.704806 -50.13625
L 366.128229 -50.13625
L 365.551652 -50.13625
L 364.975075 -50.13625
L 364.398498 -50.13625
L 363.821921 -50.13625
L 363.245344 -50.13625
L 362.668767 -50.13625
L 362.09219 -50.13625
L 361.515613 -50.13625
L 360.939036 -50.13625
L 360.362459 -50.13625
L 359.785882 -50.13625
L 359.209305 -50.13625
L 358.632728 -50.13625
L 358.056152 -50.13625
L 357.479575 -50.13625
L 356.902998 -50.13625
L 356.326421 -50.13625
L 355.749844 -50.13625
L 355.173267 -50.13625
L 354.59669 -50.13625
L 354.020113 -50.13625
L 353.443536 -50.13625
L 352.866959 -50.13625
L 352.290382 -50.13625
L 351.713805 -50.13625
L 351.137228 -50.13625
L 350.560651 -50.13625
L 349.984074 -50.13625
L 349.407497 -50.13625
L 348.830921 -50.13625
L 348.254344 -50.13625
L 347.677767 -50.13625
L 347.10119 -50.13625
L 346.524613 -50.13625
L 345.948036 -50.13625
L 345.371459 -50.13625
L 344.794882 -50.13625
L 344.218305 -50.13625
L 343.641728 -50.13625
L 343.065151 -50.13625
L 342.488574 -50.13625
L 341.911997 -50.13625
L 341.33542 -50.13625
L 340.758843 -50.13625
L 340.182267 -50.13625
L 339.60569 -50.13625
L 339.029113 -50.13625
L 338.452536 -50.13625
L 337.875959 -50.13625
L 337.299382 -50.13625
L 336.722805 -50.13625
L 336.146228 -50.13625
L 335.569651 -50.13625
L 334.993074 -50.13625
L 334.416497 -50.13625
L 333.83992 -50.13625
L 333.263343 -50.13625
L 332.686766 -50.13625
L 332.110189 -50.13625
L 331.533613 -50.13625
L 330.957036 -50.13625
L 330.380459 -50.13625
L 329.803882 -50.13625
L 329.227305 -50.13625
L 328.650728 -50.13625
L 328.074151 -50.13625
L 327.497574 -50.13625
L 326.920997 -50.13625
L 326.34442 -50.13625
L 325.767843 -50.13625
L 325.191266 -50.13625
L 324.614689 -50.13625
L 324.038112 -50.13625
L 323.461535 -50.13625
L 322.884959 -50.13625
L 322.308382 -50.13625
L 321.731805 -50.13625
L 321.155228 -50.13625
L 320.578651 -50.13625
L 320.002074 -50.13625
L 319.425497 -50.13625
L 318.84892 -50.13625
L 318.272343 -50.13625
L 317.695766 -50.13625
L 317.119189 -50.13625
L 316.542612 -50.13625
L 315.966035 -50.13625
L 315.389458 -50.13625
L 314.812881 -50.13625
L 314.236305 -50.13625
L 313.659728 -50.13625
L 313.083151 -50.13625
L 312.506574 -50.13625
L 311.929997 -50.13625
L 311.35342 -50.13625
L 310.776843 -50.13625
L 310.200266 -50.13625
L 309.623689 -50.13625
L 309.047112 -50.13625
L 308.470535 -50.13625
L 307.893958 -50.13625
L 307.317381 -50.13625
L 306.740804 -50.13625
L 306.164227 -50.13625
L 305.58765 -50.13625
L 305.011074 -50.13625
L 304.434497 -50.13625
L 303.85792 -50.13625
L 303.281343 -50.13625
L 302.704766 -50.13625
L 302.128189 -50.13625
L 301.551612 -50.13625
L 300.975035 -50.13625
L 300.398458 -50.13625
L 299.821881 -50.13625
L 299.245304 -50.13625
L 298.668727 -50.13625
L 298.09215 -50.13625
L 297.515573 -50.13625
L 296.938996 -50.13625
L 296.36242 -50.13625
L 295.785843 -50.13625
L 295.209266 -50.13625
L 294.632689 -50.13625
L 294.056112 -50.13625
L 293.479535 -50.13625
L 292.902958 -50.13625
L 292.326381 -50.13625
L 291.749804 -50.13625
L 291.173227 -50.13625
L 290.59665 -50.13625
L 290.020073 -50.13625
L 289.443496 -50.13625
L 288.866919 -50.13625
L 288.290342 -50.13625
L 287.713766 -50.13625
L 287.137189 -50.13625
L 286.560612 -50.13625
L 285.984035 -50.13625
L 285.407458 -50.13625
L 284.830881 -50.13625
L 284.254304 -50.13625
L 283.677727 -50.13625
L 283.10115 -50.13625
L 282.524573 -50.13625
L 281.947996 -50.13625
L 281.371419 -50.13625
L 280.794842 -50.13625
L 280.218265 -50.13625
L 279.641688 -50.13625
L 279.065112 -50.13625
L 278.488535 -50.13625
L 277.911958 -50.13625
L 277.335381 -50.13625
L 276.758804 -50.13625
L 276.182227 -50.13625
L 275.60565 -50.13625
L 275.029073 -50.13625
L 274.452496 -50.13625
L 273.875919 -50.13625
L 273.299342 -50.13625
L 272.722765 -50.13625
L 272.146188 -50.13625
L 271.569611 -50.13625
L 270.993034 -50.13625
L 270.416458 -50.13625
L 269.839881 -50.13625
L 269.263304 -50.13625
L 268.686727 -50.13625
L 268.11015 -50.13625
L 267.533573 -50.13625
L 266.956996 -50.13625
L 266.380419 -50.13625
L 265.803842 -50.13625
L 265.227265 -50.13625
L 264.650688 -50.13625
L 264.074111 -50.13625
L 263.497534 -50.13625
L 262.920957 -50.13625
L 262.34438 -50.13625
L 261.767804 -50.13625
L 261.191227 -50.13625
L 260.61465 -50.13625
L 260.038073 -50.13625
L 259.461496 -50.13625
L 258.884919 -50.13625
L 258.308342 -50.13625
L 257.731765 -50.13625
L 257.155188 -50.13625
L 256.578611 -50.13625
L 256.002034 -50.13625
L 255.425457 -50.13625
L 254.84888 -50.13625
L 254.272303 -50.13625
L 253.695726 -50.13625
L 253.119149 -50.13625
L 252.542573 -50.13625
L 251.965996 -50.13625
L 251.389419 -50.13625
L 250.812842 -50.13625
L 250.236265 -50.13625
L 249.659688 -50.13625
L 249.083111 -50.13625
L 248.506534 -50.13625
L 247.929957 -50.13625
L 247.35338 -50.13625
L 246.776803 -50.13625
L 246.200226 -50.13625
L 245.623649 -50.13625
L 245.047072 -50.13625
L 244.470495 -50.13625
L 243.893919 -50.13625
L 243.317342 -50.13625
L 242.740765 -50.13625
L 242.164188 -50.13625
L 241.587611 -50.13625
L 241.011034 -50.13625
L 240.434457 -50.13625
L 239.85788 -50.13625
L 239.281303 -50.13625
L 238.704726 -50.13625
L 238.128149 -50.13625
L 237.551572 -50.13625
L 236.974995 -50.13625
L 236.398418 -50.13625
L 235.821841 -50.13625
L 235.245265 -50.13625
L 234.668688 -50.13625
L 234.092111 -50.13625
L 233.515534 -50.13625
L 232.938957 -50.13625
L 232.36238 -50.13625
L 231.785803 -50.13625
L 231.209226 -50.13625
L 230.632649 -50.13625
L 230.056072 -50.13625
L 229.479495 -50.13625
L 228.902918 -50.13625
L 228.326341 -50.13625
L 227.749764 -50.13625
L 227.173187 -50.13625
L 226.596611 -50.13625
L 226.020034 -50.13625
L 225.443457 -50.13625
L 224.86688 -50.13625
L 224.290303 -50.13625
L 223.713726 -50.13625
L 223.137149 -50.13625
L 222.560572 -50.13625
L 221.983995 -50.13625
L 221.407418 -50.13625
L 220.830841 -50.13625
L 220.254264 -50.13625
L 219.677687 -50.13625
L 219.10111 -50.13625
L 218.524533 -50.13625
L 217.947957 -50.13625
L 217.37138 -50.13625
L 216.794803 -50.13625
L 216.218226 -50.13625
L 215.641649 -50.13625
L 215.065072 -50.13625
L 214.488495 -50.13625
L 213.911918 -50.13625
L 213.335341 -50.13625
L 212.758764 -50.13625
L 212.182187 -50.13625
L 211.60561 -50.13625
L 211.029033 -50.13625
L 210.452456 -50.13625
L 209.875879 -50.13625
L 209.299302 -50.13625
L 208.722726 -50.13625
L 208.146149 -50.13625
L 207.569572 -50.13625
L 206.992995 -50.13625
L 206.416418 -50.13625
L 205.839841 -50.13625
L 205.263264 -50.13625
L 204.686687 -50.13625
L 204.11011 -50.13625
L 203.533533 -50.13625
L 202.956956 -50.13625
L 202.380379 -50.13625
L 201.803802 -50.13625
L 201.227225 -50.13625
L 200.650648 -50.13625
L 200.074072 -50.13625
L 199.497495 -50.13625
L 198.920918 -50.13625
L 198.344341 -50.13625
L 197.767764 -50.13625
L 197.191187 -50.13625
L 196.61461 -50.13625
L 196.038033 -50.13625
L 195.461456 -50.13625
L 194.884879 -50.13625
L 194.308302 -50.13625
L 193.731725 -50.13625
L 193.155148 -50.13625
L 192.578571 -50.13625
L 192.001994 -50.13625
L 191.425418 -50.13625
L 190.848841 -50.13625
L 190.272264 -50.13625
L 189.695687 -50.13625
L 189.11911 -50.13625
L 188.542533 -50.13625
L 187.965956 -50.13625
L 187.389379 -50.13625
L 186.812802 -50.13625
L 186.236225 -50.13625
L 185.659648 -50.13625
L 185.083071 -50.13625
L 184.506494 -50.13625
L 183.929917 -50.13625
L 183.35334 -50.13625
L 182.776764 -50.13625
L 182.200187 -50.13625
L 181.62361 -50.13625
L 181.047033 -50.13625
L 180.470456 -50.13625
L 179.893879 -50.13625
L 179.317302 -50.13625
L 178.740725 -50.13625
L 178.164148 -50.13625
L 177.587571 -50.13625
L 177.010994 -50.13625
L 176.434417 -50.13625
L 175.85784 -50.13625
L 175.281263 -50.13625
L 174.704686 -50.13625
L 174.12811 -50.13625
L 173.551533 -50.13625
L 172.974956 -50.13625
L 172.398379 -50.13625
L 171.821802 -50.13625
L 171.245225 -50.13625
L 170.668648 -50.13625
L 170.092071 -50.13625
L 169.515494 -50.13625
L 168.938917 -50.13625
L 168.36234 -50.13625
L 167.785763 -50.13625
L 167.209186 -50.13625
L 166.632609 -50.13625
L 166.056032 -50.13625
L 165.479455 -50.13625
L 164.902879 -50.13625
L 164.326302 -50.13625
L 163.749725 -50.13625
L 163.173148 -50.13625
L 162.596571 -50.13625
L 162.019994 -50.13625
L 161.443417 -50.13625
L 160.86684 -50.13625
L 160.290263 -50.13625
L 159.713686 -50.13625
L 159.137109 -50.13625
L 158.560532 -50.13625
L 157.983955 -50.13625
L 157.407378 -50.13625
L 156.830801 -50.13625
L 156.254225 -50.13625
L 155.677648 -50.13625
L 155.101071 -50.13625
L 154.524494 -50.13625
L 153.947917 -50.13625
L 153.37134 -50.13625
L 152.794763 -50.13625
L 152.218186 -50.13625
L 151.641609 -50.13625
L 151.065032 -50.13625
L 150.488455 -50.13625
L 149.911878 -50.13625
L 149.335301 -50.13625
L 148.758724 -50.13625
L 148.182147 -50.13625
L 147.605571 -50.13625
L 147.028994 -50.13625
L 146.452417 -50.13625
L 145.87584 -50.13625
L 145.299263 -50.13625
L 144.722686 -50.13625
L 144.146109 -50.13625
L 143.569532 -50.13625
L 142.992955 -50.13625
L 142.416378 -50.13625
L 141.839801 -50.13625
L 141.263224 -50.13625
L 140.686647 -50.13625
L 140.11007 -50.13625
L 139.533493 -50.13625
L 138.956917 -50.13625
L 138.38034 -50.13625
L 137.803763 -50.13625
L 137.227186 -50.13625
L 136.650609 -50.13625
L 136.074032 -50.13625
L 135.497455 -50.13625
L 134.920878 -50.13625
L 134.344301 -50.13625
L 133.767724 -50.13625
L 133.191147 -50.13625
L 132.61457 -50.13625
L 132.037993 -50.13625
L 131.461416 -50.13625
L 130.884839 -50.13625
L 130.308263 -50.13625
L 129.731686 -50.13625
L 129.155109 -50.13625
L 128.578532 -50.13625
L 128.001955 -50.13625
L 127.425378 -50.13625
L 126.848801 -50.13625
L 126.272224 -50.13625
L 125.695647 -50.13625
L 125.11907 -50.13625
L 124.542493 -50.13625
L 123.965916 -50.13625
L 123.389339 -50.13625
L 122.812762 -50.13625
L 122.236185 -50.13625
L 121.659609 -50.13625
L 121.083032 -50.13625
L 120.506455 -50.13625
L 119.929878 -50.13625
L 119.353301 -50.13625
L 118.776724 -50.13625
L 118.200147 -50.13625
L 117.62357 -50.13625
L 117.046993 -50.13625
L 116.470416 -50.13625
L 115.893839 -50.13625
L 115.317262 -50.13625
L 114.740685 -50.13625
L 114.164108 -50.13625
L 113.587531 -50.13625
L 113.010954 -50.13625
L 112.434378 -50.13625
L 111.857801 -50.13625
L 111.281224 -50.13625
L 110.704647 -50.13625
L 110.12807 -50.13625
L 109.551493 -50.13625
L 108.974916 -50.13625
L 108.398339 -50.13625
L 107.821762 -50.13625
L 107.245185 -50.13625
L 106.668608 -50.13625
L 106.092031 -50.13625
L 105.515454 -50.13625
L 104.938877 -50.13625
L 104.3623 -50.13625
L 103.785724 -50.13625
L 103.209147 -50.13625
L 102.63257 -50.13625
L 102.055993 -50.13625
L 101.479416 -50.13625
L 100.902839 -50.13625
L 100.326262 -50.13625
L 99.749685 -50.13625
L 99.173108 -50.13625
L 98.596531 -50.13625
L 98.019954 -50.13625
L 97.443377 -50.13625
L 96.8668 -50.13625
L 96.290223 -50.13625
L 95.713646 -50.13625
L 95.13707 -50.13625
L 94.560493 -50.13625
L 93.983916 -50.13625
L 93.407339 -50.13625
L 92.830762 -50.13625
L 92.254185 -50.13625
L 91.677608 -50.13625
L 91.101031 -50.13625
L 90.524454 -50.13625
L 89.947877 -50.13625
L 89.3713 -50.13625
L 88.794723 -50.13625
L 88.218146 -50.13625
L 87.641569 -50.13625
L 87.064992 -50.13625
L 86.488416 -50.13625
L 85.911839 -50.13625
L 85.335262 -50.13625
L 84.758685 -50.13625
L 84.182108 -50.13625
L 83.605531 -50.13625
L 83.028954 -50.13625
L 82.452377 -50.13625
L 81.8758 -50.13625
L 81.299223 -50.13625
L 80.722646 -50.13625
L 80.146069 -50.13625
L 79.569492 -50.13625
L 78.992915 -50.13625
L 78.416338 -50.13625
L 77.839762 -50.13625
L 77.263185 -50.13625
L 76.686608 -50.13625
L 76.110031 -50.13625
L 75.533454 -50.13625
L 74.956877 -50.13625
L 74.3803 -50.13625
L 73.803723 -50.13625
L 73.227146 -50.13625
L 72.650569 -50.13625
L 72.073992 -50.13625
L 71.497415 -50.13625
L 70.920838 -50.13625
L 70.344261 -50.13625
z
" style="stroke: #64ccc5; stroke-opacity: 0.25"/>
    </defs>
    <g clip-path="url(#pbdd79da105)">
     <use xlink:href="#m3a285fccde" x="0" y="336.634375" style="fill: #64ccc5; fill-opacity: 0.25; stroke: #64ccc5; stroke-opacity: 0.25"/>
    </g>
   </g>
   <g id="matplotlib.axis_1">
    <g id="xtick_1">
     <g id="line2d_1">
      <path d="M 70.328678 299.078125
L 70.328678 22.318125
" clip-path="url(#pbdd79da105)" style="fill: none; stroke: #b0b0b0; stroke-opacity: 0.25; stroke-width: 0.8; stroke-linecap: square"/>
     </g>
     <g id="line2d_2">
      <defs>
       <path id="m8178f46161" d="M 0 0
L 0 3.5
" style="stroke: #000000; stroke-width: 0.8"/>
      </defs>
      <g>
       <use xlink:href="#m8178f46161" x="70.328678" y="299.078125" style="stroke: #000000; stroke-width: 0.8"/>
      </g>
     </g>
     <g id="text_1">
      <!-- 0.0 -->
      <g transform="translate(62.377116 313.676562) scale(0.1 -0.1)">
       <defs>
        <path id="DejaVuSans-30" d="M 2034 4250
Q 1547 4250 1301 3770
Q 1056 3291 1056 2328
Q 1056 1369 1301 889
Q 1547 409 2034 409
Q 2525 409 2770 889
Q 3016 1369 3016 2328
Q 3016 3291 2770 3770
Q 2525 4250 2034 4250
z
M 2034 4750
Q 2819 4750 3233 4129
Q 3647 3509 3647 2328
Q 3647 1150 3233 529
Q 2819 -91 2034 -91
Q 1250 -91 836 529
Q 422 1150 422 2328
Q 422 3509 836 4129
Q 1250 4750 2034 4750
z
" transform="scale(0.015625)"/>
        <path id="DejaVuSans-2e" d="M 684 794
L 1344 794
L 1344 0
L 684 0
L 684 794
z
" transform="scale(0.015625)"/>
       </defs>
       <use xlink:href="#DejaVuSans-30"/>
       <use xlink:href="#DejaVuSans-2e" transform="translate(63.623047 0)"/>
       <use xlink:href="#DejaVuSans-30" transform="translate(95.410156 0)"/>
      </g>
     </g>
    </g>
    <g id="xtick_2">
     <g id="line2d_3">
      <path d="M 163.84634 299.078125
L 163.84634 22.318125
" clip-path="url(#pbdd79da105)" style="fill: none; stroke: #b0b0b0; stroke-opacity: 0.25; stroke-width: 0.8; stroke-linecap: square"/>
     </g>
     <g id="line2d_4">
      <g>
       <use xlink:href="#m8178f46161" x="163.84634" y="299.078125" style="stroke: #000000; stroke-width: 0.8"/>
      </g>
     </g>
     <g id="text_2">
      <!-- 0.2 -->
      <g transform="translate(155.894778 313.676562) scale(0.1 -0.1)">
       <defs>
        <path id="DejaVuSans-32" d="M 1228 531
L 3431 531
L 3431 0
L 469 0
L 469 531
Q 828 903 1448 1529
Q 2069 2156 2228 2338
Q 2531 2678 2651 2914
Q 2772 3150 2772 3378
Q 2772 3750 2511 3984
Q 2250 4219 1831 4219
Q 1534 4219 1204 4116
Q 875 4013 500 3803
L 500 4441
Q 881 4594 1212 4672
Q 1544 4750 1819 4750
Q 2544 4750 2975 4387
Q 3406 4025 3406 3419
Q 3406 3131 3298 2873
Q 3191 2616 2906 2266
Q 2828 2175 2409 1742
Q 1991 1309 1228 531
z
" transform="scale(0.015625)"/>
       </defs>
       <use xlink:href="#DejaVuSans-30"/>
       <use xlink:href="#DejaVuSans-2e" transform="translate(63.623047 0)"/>
       <use xlink:href="#DejaVuSans-32" transform="translate(95.410156 0)"/>
      </g>
     </g>
    </g>
    <g id="xtick_3">
     <g id="line2d_5">
      <path d="M 257.364002 299.078125
L 257.364002 22.318125
" clip-path="url(#pbdd79da105)" style="fill: none; stroke: #b0b0b0; stroke-opacity: 0.25; stroke-width: 0.8; stroke-linecap: square"/>
     </g>
     <g id="line2d_6">
      <g>
       <use xlink:href="#m8178f46161" x="257.364002" y="299.078125" style="stroke: #000000; stroke-width: 0.8"/>
      </g>
     </g>
     <g id="text_3">
      <!-- 0.4 -->
      <g transform="translate(249.41244 313.676562) scale(0.1 -0.1)">
       <defs>
        <path id="DejaVuSans-34" d="M 2419 4116
L 825 1625
L 2419 1625
L 2419 4116
z
M 2253 4666
L 3047 4666
L 3047 1625
L 3713 1625
L 3713 1100
L 3047 1100
L 3047 0
L 2419 0
L 2419 1100
L 313 1100
L 313 1709
L 2253 4666
z
" transform="scale(0.015625)"/>
       </defs>
       <use xlink:href="#DejaVuSans-30"/>
       <use xlink:href="#DejaVuSans-2e" transform="translate(63.623047 0)"/>
       <use xlink:href="#DejaVuSans-34" transform="translate(95.410156 0)"/>
      </g>
     </g>
    </g>
    <g id="xtick_4">
     <g id="line2d_7">
      <path d="M 350.881664 299.078125
L 350.881664 22.318125
" clip-path="url(#pbdd79da105)" style="fill: none; stroke: #b0b0b0; stroke-opacity: 0.25; stroke-width: 0.8; stroke-linecap: square"/>
     </g>
     <g id="line2d_8">
      <g>
       <use xlink:href="#m8178f46161" x="350.881664" y="299.078125" style="stroke: #000000; stroke-width: 0.8"/>
      </g>
     </g>
     <g id="text_4">
      <!-- 0.6 -->
      <g transform="translate(342.930102 313.676562) scale(0.1 -0.1)">
       <defs>
        <path id="DejaVuSans-36" d="M 2113 2584
Q 1688 2584 1439 2293
Q 1191 2003 1191 1497
Q 1191 994 1439 701
Q 1688 409 2113 409
Q 2538 409 2786 701
Q 3034 994 3034 1497
Q 3034 2003 2786 2293
Q 2538 2584 2113 2584
z
M 3366 4563
L 3366 3988
Q 3128 4100 2886 4159
Q 2644 4219 2406 4219
Q 1781 4219 1451 3797
Q 1122 3375 1075 2522
Q 1259 2794 1537 2939
Q 1816 3084 2150 3084
Q 2853 3084 3261 2657
Q 3669 2231 3669 1497
Q 3669 778 3244 343
Q 2819 -91 2113 -91
Q 1303 -91 875 529
Q 447 1150 447 2328
Q 447 3434 972 4092
Q 1497 4750 2381 4750
Q 2619 4750 2861 4703
Q 3103 4656 3366 4563
z
" transform="scale(0.015625)"/>
       </defs>
       <use xlink:href="#DejaVuSans-30"/>
       <use xlink:href="#DejaVuSans-2e" transform="translate(63.623047 0)"/>
       <use xlink:href="#DejaVuSans-36" transform="translate(95.410156 0)"/>
      </g>
     </g>
    </g>
    <g id="xtick_5">
     <g id="line2d_9">
      <path d="M 444.399327 299.078125
L 444.399327 22.318125
" clip-path="url(#pbdd79da105)" style="fill: none; stroke: #b0b0b0; stroke-opacity: 0.25; stroke-width: 0.8; stroke-linecap: square"/>
     </g>
     <g id="line2d_10">
      <g>
       <use xlink:href="#m8178f46161" x="444.399327" y="299.078125" style="stroke: #000000; stroke-width: 0.8"/>
      </g>
     </g>
     <g id="text_5">
      <!-- 0.8 -->
      <g transform="translate(436.447764 313.676562) scale(0.1 -0.1)">
       <defs>
        <path id="DejaVuSans-38" d="M 2034 2216
Q 1584 2216 1326 1975
Q 1069 1734 1069 1313
Q 1069 891 1326 650
Q 1584 409 2034 409
Q 2484 409 2743 651
Q 3003 894 3003 1313
Q 3003 1734 2745 1975
Q 2488 2216 2034 2216
z
M 1403 2484
Q 997 2584 770 2862
Q 544 3141 544 3541
Q 544 4100 942 4425
Q 1341 4750 2034 4750
Q 2731 4750 3128 4425
Q 3525 4100 3525 3541
Q 3525 3141 3298 2862
Q 3072 2584 2669 2484
Q 3125 2378 3379 2068
Q 3634 1759 3634 1313
Q 3634 634 3220 271
Q 2806 -91 2034 -91
Q 1263 -91 848 271
Q 434 634 434 1313
Q 434 1759 690 2068
Q 947 2378 1403 2484
z
M 1172 3481
Q 1172 3119 1398 2916
Q 1625 2713 2034 2713
Q 2441 2713 2670 2916
Q 2900 3119 2900 3481
Q 2900 3844 2670 4047
Q 2441 4250 2034 4250
Q 1625 4250 1398 4047
Q 1172 3844 1172 3481
z
" transform="scale(0.015625)"/>
       </defs>
       <use xlink:href="#DejaVuSans-30"/>
       <use xlink:href="#DejaVuSans-2e" transform="translate(63.623047 0)"/>
       <use xlink:href="#DejaVuSans-38" transform="translate(95.410156 0)"/>
      </g>
     </g>
    </g>
    <g id="xtick_6">
     <g id="line2d_11">
      <path d="M 537.916989 299.078125
L 537.916989 22.318125
" clip-path="url(#pbdd79da105)" style="fill: none; stroke: #b0b0b0; stroke-opacity: 0.25; stroke-width: 0.8; stroke-linecap: square"/>
     </g>
     <g id="line2d_12">
      <g>
       <use xlink:href="#m8178f46161" x="537.916989" y="299.078125" style="stroke: #000000; stroke-width: 0.8"/>
      </g>
     </g>
     <g id="text_6">
      <!-- 1.0 -->
      <g transform="translate(529.965426 313.676562) scale(0.1 -0.1)">
       <defs>
        <path id="DejaVuSans-31" d="M 794 531
L 1825 531
L 1825 4091
L 703 3866
L 703 4441
L 1819 4666
L 2450 4666
L 2450 531
L 3481 531
L 3481 0
L 794 0
L 794 531
z
" transform="scale(0.015625)"/>
       </defs>
       <use xlink:href="#DejaVuSans-31"/>
       <use xlink:href="#DejaVuSans-2e" transform="translate(63.623047 0)"/>
       <use xlink:href="#DejaVuSans-30" transform="translate(95.410156 0)"/>
      </g>
     </g>
    </g>
    <g id="text_7">
     <!-- Targeted population fraction -->
     <g transform="translate(233.416562 327.354687) scale(0.1 -0.1)">
      <defs>
       <path id="DejaVuSans-54" d="M -19 4666
L 3928 4666
L 3928 4134
L 2272 4134
L 2272 0
L 1638 0
L 1638 4134
L -19 4134
L -19 4666
z
" transform="scale(0.015625)"/>
       <path id="DejaVuSans-61" d="M 2194 1759
Q 1497 1759 1228 1600
Q 959 1441 959 1056
Q 959 750 1161 570
Q 1363 391 1709 391
Q 2188 391 2477 730
Q 2766 1069 2766 1631
L 2766 1759
L 2194 1759
z
M 3341 1997
L 3341 0
L 2766 0
L 2766 531
Q 2569 213 2275 61
Q 1981 -91 1556 -91
Q 1019 -91 701 211
Q 384 513 384 1019
Q 384 1609 779 1909
Q 1175 2209 1959 2209
L 2766 2209
L 2766 2266
Q 2766 2663 2505 2880
Q 2244 3097 1772 3097
Q 1472 3097 1187 3025
Q 903 2953 641 2809
L 641 3341
Q 956 3463 1253 3523
Q 1550 3584 1831 3584
Q 2591 3584 2966 3190
Q 3341 2797 3341 1997
z
" transform="scale(0.015625)"/>
       <path id="DejaVuSans-72" d="M 2631 2963
Q 2534 3019 2420 3045
Q 2306 3072 2169 3072
Q 1681 3072 1420 2755
Q 1159 2438 1159 1844
L 1159 0
L 581 0
L 581 3500
L 1159 3500
L 1159 2956
Q 1341 3275 1631 3429
Q 1922 3584 2338 3584
Q 2397 3584 2469 3576
Q 2541 3569 2628 3553
L 2631 2963
z
" transform="scale(0.015625)"/>
       <path id="DejaVuSans-67" d="M 2906 1791
Q 2906 2416 2648 2759
Q 2391 3103 1925 3103
Q 1463 3103 1205 2759
Q 947 2416 947 1791
Q 947 1169 1205 825
Q 1463 481 1925 481
Q 2391 481 2648 825
Q 2906 1169 2906 1791
z
M 3481 434
Q 3481 -459 3084 -895
Q 2688 -1331 1869 -1331
Q 1566 -1331 1297 -1286
Q 1028 -1241 775 -1147
L 775 -588
Q 1028 -725 1275 -790
Q 1522 -856 1778 -856
Q 2344 -856 2625 -561
Q 2906 -266 2906 331
L 2906 616
Q 2728 306 2450 153
Q 2172 0 1784 0
Q 1141 0 747 490
Q 353 981 353 1791
Q 353 2603 747 3093
Q 1141 3584 1784 3584
Q 2172 3584 2450 3431
Q 2728 3278 2906 2969
L 2906 3500
L 3481 3500
L 3481 434
z
" transform="scale(0.015625)"/>
       <path id="DejaVuSans-65" d="M 3597 1894
L 3597 1613
L 953 1613
Q 991 1019 1311 708
Q 1631 397 2203 397
Q 2534 397 2845 478
Q 3156 559 3463 722
L 3463 178
Q 3153 47 2828 -22
Q 2503 -91 2169 -91
Q 1331 -91 842 396
Q 353 884 353 1716
Q 353 2575 817 3079
Q 1281 3584 2069 3584
Q 2775 3584 3186 3129
Q 3597 2675 3597 1894
z
M 3022 2063
Q 3016 2534 2758 2815
Q 2500 3097 2075 3097
Q 1594 3097 1305 2825
Q 1016 2553 972 2059
L 3022 2063
z
" transform="scale(0.015625)"/>
       <path id="DejaVuSans-74" d="M 1172 4494
L 1172 3500
L 2356 3500
L 2356 3053
L 1172 3053
L 1172 1153
Q 1172 725 1289 603
Q 1406 481 1766 481
L 2356 481
L 2356 0
L 1766 0
Q 1100 0 847 248
Q 594 497 594 1153
L 594 3053
L 172 3053
L 172 3500
L 594 3500
L 594 4494
L 1172 4494
z
" transform="scale(0.015625)"/>
       <path id="DejaVuSans-64" d="M 2906 2969
L 2906 4863
L 3481 4863
L 3481 0
L 2906 0
L 2906 525
Q 2725 213 2448 61
Q 2172 -91 1784 -91
Q 1150 -91 751 415
Q 353 922 353 1747
Q 353 2572 751 3078
Q 1150 3584 1784 3584
Q 2172 3584 2448 3432
Q 2725 3281 2906 2969
z
M 947 1747
Q 947 1113 1208 752
Q 1469 391 1925 391
Q 2381 391 2643 752
Q 2906 1113 2906 1747
Q 2906 2381 2643 2742
Q 2381 3103 1925 3103
Q 1469 3103 1208 2742
Q 947 2381 947 1747
z
" transform="scale(0.015625)"/>
       <path id="DejaVuSans-20" transform="scale(0.015625)"/>
       <path id="DejaVuSans-70" d="M 1159 525
L 1159 -1331
L 581 -1331
L 581 3500
L 1159 3500
L 1159 2969
Q 1341 3281 1617 3432
Q 1894 3584 2278 3584
Q 2916 3584 3314 3078
Q 3713 2572 3713 1747
Q 3713 922 3314 415
Q 2916 -91 2278 -91
Q 1894 -91 1617 61
Q 1341 213 1159 525
z
M 3116 1747
Q 3116 2381 2855 2742
Q 2594 3103 2138 3103
Q 1681 3103 1420 2742
Q 1159 2381 1159 1747
Q 1159 1113 1420 752
Q 1681 391 2138 391
Q 2594 391 2855 752
Q 3116 1113 3116 1747
z
" transform="scale(0.015625)"/>
       <path id="DejaVuSans-6f" d="M 1959 3097
Q 1497 3097 1228 2736
Q 959 2375 959 1747
Q 959 1119 1226 758
Q 1494 397 1959 397
Q 2419 397 2687 759
Q 2956 1122 2956 1747
Q 2956 2369 2687 2733
Q 2419 3097 1959 3097
z
M 1959 3584
Q 2709 3584 3137 3096
Q 3566 2609 3566 1747
Q 3566 888 3137 398
Q 2709 -91 1959 -91
Q 1206 -91 779 398
Q 353 888 353 1747
Q 353 2609 779 3096
Q 1206 3584 1959 3584
z
" transform="scale(0.015625)"/>
       <path id="DejaVuSans-75" d="M 544 1381
L 544 3500
L 1119 3500
L 1119 1403
Q 1119 906 1312 657
Q 1506 409 1894 409
Q 2359 409 2629 706
Q 2900 1003 2900 1516
L 2900 3500
L 3475 3500
L 3475 0
L 2900 0
L 2900 538
Q 2691 219 2414 64
Q 2138 -91 1772 -91
Q 1169 -91 856 284
Q 544 659 544 1381
z
M 1991 3584
L 1991 3584
z
" transform="scale(0.015625)"/>
       <path id="DejaVuSans-6c" d="M 603 4863
L 1178 4863
L 1178 0
L 603 0
L 603 4863
z
" transform="scale(0.015625)"/>
       <path id="DejaVuSans-69" d="M 603 3500
L 1178 3500
L 1178 0
L 603 0
L 603 3500
z
M 603 4863
L 1178 4863
L 1178 4134
L 603 4134
L 603 4863
z
" transform="scale(0.015625)"/>
       <path id="DejaVuSans-6e" d="M 3513 2113
L 3513 0
L 2938 0
L 2938 2094
Q 2938 2591 2744 2837
Q 2550 3084 2163 3084
Q 1697 3084 1428 2787
Q 1159 2491 1159 1978
L 1159 0
L 581 0
L 581 3500
L 1159 3500
L 1159 2956
Q 1366 3272 1645 3428
Q 1925 3584 2291 3584
Q 2894 3584 3203 3211
Q 3513 2838 3513 2113
z
" transform="scale(0.015625)"/>
       <path id="DejaVuSans-66" d="M 2375 4863
L 2375 4384
L 1825 4384
Q 1516 4384 1395 4259
Q 1275 4134 1275 3809
L 1275 3500
L 2222 3500
L 2222 3053
L 1275 3053
L 1275 0
L 697 0
L 697 3053
L 147 3053
L 147 3500
L 697 3500
L 697 3744
Q 697 4328 969 4595
Q 1241 4863 1831 4863
L 2375 4863
z
" transform="scale(0.015625)"/>
       <path id="DejaVuSans-63" d="M 3122 3366
L 3122 2828
Q 2878 2963 2633 3030
Q 2388 3097 2138 3097
Q 1578 3097 1268 2742
Q 959 2388 959 1747
Q 959 1106 1268 751
Q 1578 397 2138 397
Q 2388 397 2633 464
Q 2878 531 3122 666
L 3122 134
Q 2881 22 2623 -34
Q 2366 -91 2075 -91
Q 1284 -91 818 406
Q 353 903 353 1747
Q 353 2603 823 3093
Q 1294 3584 2113 3584
Q 2378 3584 2631 3529
Q 2884 3475 3122 3366
z
" transform="scale(0.015625)"/>
      </defs>
      <use xlink:href="#DejaVuSans-54"/>
      <use xlink:href="#DejaVuSans-61" transform="translate(44.583984 0)"/>
      <use xlink:href="#DejaVuSans-72" transform="translate(105.863281 0)"/>
      <use xlink:href="#DejaVuSans-67" transform="translate(145.226562 0)"/>
      <use xlink:href="#DejaVuSans-65" transform="translate(208.703125 0)"/>
      <use xlink:href="#DejaVuSans-74" transform="translate(270.226562 0)"/>
      <use xlink:href="#DejaVuSans-65" transform="translate(309.435547 0)"/>
      <use xlink:href="#DejaVuSans-64" transform="translate(370.958984 0)"/>
      <use xlink:href="#DejaVuSans-20" transform="translate(434.435547 0)"/>
      <use xlink:href="#DejaVuSans-70" transform="translate(466.222656 0)"/>
      <use xlink:href="#DejaVuSans-6f" transform="translate(529.699219 0)"/>
      <use xlink:href="#DejaVuSans-70" transform="translate(590.880859 0)"/>
      <use xlink:href="#DejaVuSans-75" transform="translate(654.357422 0)"/>
      <use xlink:href="#DejaVuSans-6c" transform="translate(717.736328 0)"/>
      <use xlink:href="#DejaVuSans-61" transform="translate(745.519531 0)"/>
      <use xlink:href="#DejaVuSans-74" transform="translate(806.798828 0)"/>
      <use xlink:href="#DejaVuSans-69" transform="translate(846.007812 0)"/>
      <use xlink:href="#DejaVuSans-6f" transform="translate(873.791016 0)"/>
      <use xlink:href="#DejaVuSans-6e" transform="translate(934.972656 0)"/>
      <use xlink:href="#DejaVuSans-20" transform="translate(998.351562 0)"/>
      <use xlink:href="#DejaVuSans-66" transform="translate(1030.138672 0)"/>
      <use xlink:href="#DejaVuSans-72" transform="translate(1065.34375 0)"/>
      <use xlink:href="#DejaVuSans-61" transform="translate(1106.457031 0)"/>
      <use xlink:href="#DejaVuSans-63" transform="translate(1167.736328 0)"/>
      <use xlink:href="#DejaVuSans-74" transform="translate(1222.716797 0)"/>
      <use xlink:href="#DejaVuSans-69" transform="translate(1261.925781 0)"/>
      <use xlink:href="#DejaVuSans-6f" transform="translate(1289.708984 0)"/>
      <use xlink:href="#DejaVuSans-6e" transform="translate(1350.890625 0)"/>
     </g>
    </g>
   </g>
   <g id="matplotlib.axis_2">
    <g id="ytick_1">
     <g id="line2d_13">
      <path d="M 46.965625 286.498125
L 561.295625 286.498125
" clip-path="url(#pbdd79da105)" style="fill: none; stroke: #b0b0b0; stroke-opacity: 0.25; stroke-width: 0.8; stroke-linecap: square"/>
     </g>
     <g id="line2d_14">
      <defs>
       <path id="m0621c5d32b" d="M 0 0
L -3.5 0
" style="stroke: #000000; stroke-width: 0.8"/>
      </defs>
      <g>
       <use xlink:href="#m0621c5d32b" x="46.965625" y="286.498125" style="stroke: #000000; stroke-width: 0.8"/>
      </g>
     </g>
     <g id="text_8">
      <!-- 0 -->
      <g transform="translate(33.603125 290.297344) scale(0.1 -0.1)">
       <use xlink:href="#DejaVuSans-30"/>
      </g>
     </g>
    </g>
    <g id="ytick_2">
     <g id="line2d_15">
      <path d="M 46.965625 236.183554
L 561.295625 236.183554
" clip-path="url(#pbdd79da105)" style="fill: none; stroke: #b0b0b0; stroke-opacity: 0.25; stroke-width: 0.8; stroke-linecap: square"/>
     </g>
     <g id="line2d_16">
      <g>
       <use xlink:href="#m0621c5d32b" x="46.965625" y="236.183554" style="stroke: #000000; stroke-width: 0.8"/>
      </g>
     </g>
     <g id="text_9">
      <!-- 100 -->
      <g transform="translate(20.878125 239.982772) scale(0.1 -0.1)">
       <use xlink:href="#DejaVuSans-31"/>
       <use xlink:href="#DejaVuSans-30" transform="translate(63.623047 0)"/>
       <use xlink:href="#DejaVuSans-30" transform="translate(127.246094 0)"/>
      </g>
     </g>
    </g>
    <g id="ytick_3">
     <g id="line2d_17">
      <path d="M 46.965625 185.868982
L 561.295625 185.868982
" clip-path="url(#pbdd79da105)" style="fill: none; stroke: #b0b0b0; stroke-opacity: 0.25; stroke-width: 0.8; stroke-linecap: square"/>
     </g>
     <g id="line2d_18">
      <g>
       <use xlink:href="#m0621c5d32b" x="46.965625" y="185.868982" style="stroke: #000000; stroke-width: 0.8"/>
      </g>
     </g>
     <g id="text_10">
      <!-- 200 -->
      <g transform="translate(20.878125 189.668201) scale(0.1 -0.1)">
       <use xlink:href="#DejaVuSans-32"/>
       <use xlink:href="#DejaVuSans-30" transform="translate(63.623047 0)"/>
       <use xlink:href="#DejaVuSans-30" transform="translate(127.246094 0)"/>
      </g>
     </g>
    </g>
    <g id="ytick_4">
     <g id="line2d_19">
      <path d="M 46.965625 135.554411
L 561.295625 135.554411
" clip-path="url(#pbdd79da105)" style="fill: none; stroke: #b0b0b0; stroke-opacity: 0.25; stroke-width: 0.8; stroke-linecap: square"/>
     </g>
     <g id="line2d_20">
      <g>
       <use xlink:href="#m0621c5d32b" x="46.965625" y="135.554411" style="stroke: #000000; stroke-width: 0.8"/>
      </g>
     </g>
     <g id="text_11">
      <!-- 300 -->
      <g transform="translate(20.878125 139.353629) scale(0.1 -0.1)">
       <defs>
        <path id="DejaVuSans-33" d="M 2597 2516
Q 3050 2419 3304 2112
Q 3559 1806 3559 1356
Q 3559 666 3084 287
Q 2609 -91 1734 -91
Q 1441 -91 1130 -33
Q 819 25 488 141
L 488 750
Q 750 597 1062 519
Q 1375 441 1716 441
Q 2309 441 2620 675
Q 2931 909 2931 1356
Q 2931 1769 2642 2001
Q 2353 2234 1838 2234
L 1294 2234
L 1294 2753
L 1863 2753
Q 2328 2753 2575 2939
Q 2822 3125 2822 3475
Q 2822 3834 2567 4026
Q 2313 4219 1838 4219
Q 1578 4219 1281 4162
Q 984 4106 628 3988
L 628 4550
Q 988 4650 1302 4700
Q 1616 4750 1894 4750
Q 2613 4750 3031 4423
Q 3450 4097 3450 3541
Q 3450 3153 3228 2886
Q 3006 2619 2597 2516
z
" transform="scale(0.015625)"/>
       </defs>
       <use xlink:href="#DejaVuSans-33"/>
       <use xlink:href="#DejaVuSans-30" transform="translate(63.623047 0)"/>
       <use xlink:href="#DejaVuSans-30" transform="translate(127.246094 0)"/>
      </g>
     </g>
    </g>
    <g id="ytick_5">
     <g id="line2d_21">
      <path d="M 46.965625 85.239839
L 561.295625 85.239839
" clip-path="url(#pbdd79da105)" style="fill: none; stroke: #b0b0b0; stroke-opacity: 0.25; stroke-width: 0.8; stroke-linecap: square"/>
     </g>
     <g id="line2d_22">
      <g>
       <use xlink:href="#m0621c5d32b" x="46.965625" y="85.239839" style="stroke: #000000; stroke-width: 0.8"/>
      </g>
     </g>
     <g id="text_12">
      <!-- 400 -->
      <g transform="translate(20.878125 89.039058) scale(0.1 -0.1)">
       <use xlink:href="#DejaVuSans-34"/>
       <use xlink:href="#DejaVuSans-30" transform="translate(63.623047 0)"/>
       <use xlink:href="#DejaVuSans-30" transform="translate(127.246094 0)"/>
      </g>
     </g>
    </g>
    <g id="ytick_6">
     <g id="line2d_23">
      <path d="M 46.965625 34.925268
L 561.295625 34.925268
" clip-path="url(#pbdd79da105)" style="fill: none; stroke: #b0b0b0; stroke-opacity: 0.25; stroke-width: 0.8; stroke-linecap: square"/>
     </g>
     <g id="line2d_24">
      <g>
       <use xlink:href="#m0621c5d32b" x="46.965625" y="34.925268" style="stroke: #000000; stroke-width: 0.8"/>
      </g>
     </g>
     <g id="text_13">
      <!-- 500 -->
      <g transform="translate(20.878125 38.724487) scale(0.1 -0.1)">
       <defs>
        <path id="DejaVuSans-35" d="M 691 4666
L 3169 4666
L 3169 4134
L 1269 4134
L 1269 2991
Q 1406 3038 1543 3061
Q 1681 3084 1819 3084
Q 2600 3084 3056 2656
Q 3513 2228 3513 1497
Q 3513 744 3044 326
Q 2575 -91 1722 -91
Q 1428 -91 1123 -41
Q 819 9 494 109
L 494 744
Q 775 591 1075 516
Q 1375 441 1709 441
Q 2250 441 2565 725
Q 2881 1009 2881 1497
Q 2881 1984 2565 2268
Q 2250 2553 1709 2553
Q 1456 2553 1204 2497
Q 953 2441 691 2322
L 691 4666
z
" transform="scale(0.015625)"/>
       </defs>
       <use xlink:href="#DejaVuSans-35"/>
       <use xlink:href="#DejaVuSans-30" transform="translate(63.623047 0)"/>
       <use xlink:href="#DejaVuSans-30" transform="translate(127.246094 0)"/>
      </g>
     </g>
    </g>
    <g id="text_14">
     <!-- Incremental responders -->
     <g transform="translate(14.798438 220.166094) rotate(-90) scale(0.1 -0.1)">
      <defs>
       <path id="DejaVuSans-49" d="M 628 4666
L 1259 4666
L 1259 0
L 628 0
L 628 4666
z
" transform="scale(0.015625)"/>
       <path id="DejaVuSans-6d" d="M 3328 2828
Q 3544 3216 3844 3400
Q 4144 3584 4550 3584
Q 5097 3584 5394 3201
Q 5691 2819 5691 2113
L 5691 0
L 5113 0
L 5113 2094
Q 5113 2597 4934 2840
Q 4756 3084 4391 3084
Q 3944 3084 3684 2787
Q 3425 2491 3425 1978
L 3425 0
L 2847 0
L 2847 2094
Q 2847 2600 2669 2842
Q 2491 3084 2119 3084
Q 1678 3084 1418 2786
Q 1159 2488 1159 1978
L 1159 0
L 581 0
L 581 3500
L 1159 3500
L 1159 2956
Q 1356 3278 1631 3431
Q 1906 3584 2284 3584
Q 2666 3584 2933 3390
Q 3200 3197 3328 2828
z
" transform="scale(0.015625)"/>
       <path id="DejaVuSans-73" d="M 2834 3397
L 2834 2853
Q 2591 2978 2328 3040
Q 2066 3103 1784 3103
Q 1356 3103 1142 2972
Q 928 2841 928 2578
Q 928 2378 1081 2264
Q 1234 2150 1697 2047
L 1894 2003
Q 2506 1872 2764 1633
Q 3022 1394 3022 966
Q 3022 478 2636 193
Q 2250 -91 1575 -91
Q 1294 -91 989 -36
Q 684 19 347 128
L 347 722
Q 666 556 975 473
Q 1284 391 1588 391
Q 1994 391 2212 530
Q 2431 669 2431 922
Q 2431 1156 2273 1281
Q 2116 1406 1581 1522
L 1381 1569
Q 847 1681 609 1914
Q 372 2147 372 2553
Q 372 3047 722 3315
Q 1072 3584 1716 3584
Q 2034 3584 2315 3537
Q 2597 3491 2834 3397
z
" transform="scale(0.015625)"/>
      </defs>
      <use xlink:href="#DejaVuSans-49"/>
      <use xlink:href="#DejaVuSans-6e" transform="translate(29.492188 0)"/>
      <use xlink:href="#DejaVuSans-63" transform="translate(92.871094 0)"/>
      <use xlink:href="#DejaVuSans-72" transform="translate(147.851562 0)"/>
      <use xlink:href="#DejaVuSans-65" transform="translate(186.714844 0)"/>
      <use xlink:href="#DejaVuSans-6d" transform="translate(248.238281 0)"/>
      <use xlink:href="#DejaVuSans-65" transform="translate(345.650391 0)"/>
      <use xlink:href="#DejaVuSans-6e" transform="translate(407.173828 0)"/>
      <use xlink:href="#DejaVuSans-74" transform="translate(470.552734 0)"/>
      <use xlink:href="#DejaVuSans-61" transform="translate(509.761719 0)"/>
      <use xlink:href="#DejaVuSans-6c" transform="translate(571.041016 0)"/>
      <use xlink:href="#DejaVuSans-20" transform="translate(598.824219 0)"/>
      <use xlink:href="#DejaVuSans-72" transform="translate(630.611328 0)"/>
      <use xlink:href="#DejaVuSans-65" transform="translate(669.474609 0)"/>
      <use xlink:href="#DejaVuSans-73" transform="translate(730.998047 0)"/>
      <use xlink:href="#DejaVuSans-70" transform="translate(783.097656 0)"/>
      <use xlink:href="#DejaVuSans-6f" transform="translate(846.574219 0)"/>
      <use xlink:href="#DejaVuSans-6e" transform="translate(907.755859 0)"/>
      <use xlink:href="#DejaVuSans-64" transform="translate(971.134766 0)"/>
      <use xlink:href="#DejaVuSans-65" transform="translate(1034.611328 0)"/>
      <use xlink:href="#DejaVuSans-72" transform="translate(1096.134766 0)"/>
      <use xlink:href="#DejaVuSans-73" transform="translate(1137.248047 0)"/>
     </g>
    </g>
   </g>
   <g id="line2d_25">
    <path d="M 70.344261 285.994979
L 71.497415 278.322007
L 72.073992 277.340873
L 72.650569 277.368465
L 73.227146 272.775969
L 73.803723 271.287236
L 74.3803 271.800974
L 74.956877 267.995584
L 75.533454 265.985774
L 76.110031 262.682561
L 76.686608 262.638426
L 77.263185 263.635087
L 77.839762 260.842107
L 78.992915 258.628061
L 79.569492 255.010942
L 80.146069 252.906753
L 80.722646 253.394049
L 81.299223 251.508281
L 81.8758 252.517101
L 82.452377 250.98865
L 83.028954 249.950504
L 83.605531 246.973787
L 84.758685 243.11376
L 85.335262 243.32844
L 85.911839 243.098906
L 86.488416 244.397534
L 87.064992 243.311777
L 87.641569 244.574
L 88.218146 241.022048
L 88.794723 240.573695
L 89.3713 238.485928
L 89.947877 233.951253
L 90.524454 232.313877
L 91.101031 231.715993
L 91.677608 230.877377
L 92.254185 228.340705
L 92.830762 227.404553
L 93.407339 231.148636
L 93.983916 233.976466
L 94.560493 231.058995
L 95.13707 232.255171
L 95.713646 230.721278
L 96.290223 230.229663
L 96.8668 229.274533
L 97.443377 228.081193
L 98.019954 226.383779
L 98.596531 226.877334
L 99.173108 224.453276
L 99.749685 226.724849
L 100.326262 227.825921
L 100.902839 227.623833
L 101.479416 227.794212
L 102.055993 228.992239
L 102.63257 228.015789
L 103.209147 228.55017
L 103.785724 227.737281
L 104.3623 227.11712
L 104.938877 224.529636
L 107.245185 220.586036
L 107.821762 220.170909
L 108.398339 222.383343
L 108.974916 221.542548
L 109.551493 219.626039
L 110.704647 217.302804
L 111.281224 217.184054
L 111.857801 217.411372
L 112.434378 216.242616
L 113.010954 212.525627
L 113.587531 213.669534
L 114.164108 212.504826
L 114.740685 211.842761
L 115.317262 209.791498
L 116.470416 206.416804
L 117.62357 212.234692
L 118.200147 212.503801
L 118.776724 211.805586
L 119.353301 210.047839
L 119.929878 212.841564
L 120.506455 212.693927
L 121.083032 211.573423
L 121.659609 211.458856
L 122.812762 210.201301
L 123.389339 209.928198
L 123.965916 208.226969
L 124.542493 208.538685
L 125.11907 207.345903
L 125.695647 210.035042
L 126.272224 210.822085
L 126.848801 206.947024
L 127.425378 206.642107
L 128.001955 206.88516
L 129.155109 200.621645
L 129.731686 201.906752
L 130.308263 198.514517
L 131.461416 198.199803
L 132.61457 199.946691
L 133.191147 200.173269
L 133.767724 198.795267
L 134.344301 196.527376
L 134.920878 196.420158
L 135.497455 195.701348
L 136.074032 193.906609
L 136.650609 193.622562
L 137.227186 194.977143
L 138.956917 194.422459
L 139.533493 194.040896
L 140.11007 193.251986
L 140.686647 194.391055
L 141.839801 197.946465
L 142.416378 196.682017
L 142.992955 192.846676
L 143.569532 194.147487
L 144.146109 194.908919
L 144.722686 191.64529
L 145.87584 189.13097
L 146.452417 189.402192
L 147.028994 189.214798
L 147.605571 187.118423
L 148.182147 188.368389
L 148.758724 185.545302
L 149.335301 183.83972
L 149.911878 183.078022
L 150.488455 181.371946
L 151.065032 181.671127
L 152.218186 186.249916
L 152.794763 186.495026
L 153.37134 188.307737
L 153.947917 188.533584
L 154.524494 186.289906
L 155.101071 186.55026
L 155.677648 183.840351
L 156.254225 184.607047
L 156.830801 183.314398
L 157.407378 181.560797
L 157.983955 183.284901
L 158.560532 180.999648
L 159.137109 180.199059
L 159.713686 179.96465
L 160.290263 180.200057
L 160.86684 178.928328
L 161.443417 178.654315
L 162.019994 177.404836
L 162.596571 178.63732
L 163.173148 176.899994
L 163.749725 178.165918
L 164.326302 178.406842
L 164.902879 175.636318
L 165.479455 174.844143
L 166.632609 169.326849
L 167.209186 168.050907
L 167.785763 168.806966
L 168.36234 166.530367
L 168.938917 163.737406
L 169.515494 162.498132
L 170.092071 163.242819
L 171.245225 161.754448
L 171.821802 160.494145
L 172.398379 160.245366
L 172.974956 158.982266
L 173.551533 160.272637
L 174.12811 159.519663
L 175.281263 153.449656
L 175.85784 153.177579
L 176.434417 156.468516
L 177.010994 157.731503
L 177.587571 157.972882
L 178.164148 159.721626
L 178.740725 160.96601
L 179.317302 159.204842
L 180.470456 156.682696
L 181.047033 155.915934
L 181.62361 157.670922
L 182.200187 155.917844
L 182.776764 156.160035
L 183.35334 156.899559
L 183.929917 158.128131
L 184.506494 159.838322
L 185.083071 159.096355
L 185.659648 162.320304
L 186.236225 160.111559
L 186.812802 156.899669
L 187.389379 155.14018
L 187.965956 152.868848
L 188.542533 154.087539
L 189.11911 153.807434
L 189.695687 151.075337
L 190.272264 150.819408
L 190.848841 152.081651
L 191.425418 151.800378
L 192.578571 155.262165
L 193.155148 153.499094
L 193.731725 153.735468
L 194.308302 150.499464
L 194.884879 148.240781
L 195.461456 148.486379
L 196.038033 147.733694
L 196.61461 145.478731
L 197.191187 142.747755
L 197.767764 142.527941
L 198.920918 140.044712
L 199.497495 139.332739
L 200.074072 140.092877
L 200.650648 139.846316
L 201.227225 137.627457
L 201.803802 137.865848
L 202.380379 139.682395
L 202.956956 138.984842
L 203.533533 139.792373
L 204.686687 140.309911
L 205.263264 139.110433
L 205.839841 140.39406
L 206.416418 142.089749
L 206.992995 139.8661
L 207.569572 139.09078
L 208.146149 139.866369
L 208.722726 142.645578
L 209.299302 142.404811
L 209.875879 144.177992
L 210.452456 143.932939
L 211.029033 143.175937
L 211.60561 144.417087
L 212.182187 141.634227
L 212.758764 143.422986
L 213.335341 143.144185
L 213.911918 144.890437
L 214.488495 145.698234
L 215.065072 144.896356
L 215.641649 145.127058
L 216.218226 144.908651
L 216.794803 140.640651
L 217.37138 140.922476
L 217.947957 141.569584
L 219.10111 140.000783
L 219.677687 138.840176
L 220.254264 138.018682
L 220.830841 138.375893
L 221.983995 139.805453
L 222.560572 138.995857
L 223.137149 138.756658
L 223.713726 139.980865
L 224.290303 141.804295
L 225.443457 140.401597
L 226.020034 142.181856
L 226.596611 141.053564
L 227.173187 143.211368
L 228.326341 144.765013
L 228.902918 142.533375
L 229.479495 141.797273
L 230.056072 139.996075
L 230.632649 139.822708
L 231.209226 138.284444
L 231.785803 141.010293
L 232.36238 139.415137
L 232.938957 139.695351
L 233.515534 141.078958
L 234.092111 140.85199
L 234.668688 139.936171
L 235.245265 142.672117
L 235.821841 139.345422
L 236.398418 139.481658
L 236.974995 138.813517
L 237.551572 136.050963
L 238.128149 135.886273
L 238.704726 136.022486
L 239.281303 135.663572
L 239.85788 137.123892
L 240.434457 137.732617
L 241.011034 140.587524
L 241.587611 139.782521
L 242.164188 140.692385
L 242.740765 139.110362
L 243.317342 138.77429
L 245.047072 133.71116
L 245.623649 136.133723
L 246.200226 136.410375
L 246.776803 135.740385
L 247.35338 134.466806
L 247.929957 133.728273
L 248.506534 135.91147
L 249.083111 132.5488
L 249.659688 132.676942
L 250.236265 131.976117
L 250.812842 128.685159
L 251.965996 124.084934
L 252.542573 124.251104
L 253.119149 123.946892
L 253.695726 124.145158
L 254.272303 123.371809
L 254.84888 125.185378
L 255.425457 124.91467
L 256.002034 122.668848
L 256.578611 124.0197
L 257.155188 123.673341
L 258.308342 121.233904
L 258.884919 119.027139
L 259.461496 119.64738
L 260.038073 119.29812
L 260.61465 122.08297
L 261.191227 120.538938
L 261.767804 118.614597
L 262.34438 118.546023
L 262.920957 119.706993
L 263.497534 118.165109
L 264.650688 120.284363
L 265.227265 120.474161
L 266.380419 119.854661
L 266.956996 119.712159
L 267.533573 120.325904
L 268.11015 118.670052
L 268.686727 119.702192
L 269.263304 116.955157
L 269.839881 117.823546
L 270.416458 117.05065
L 270.993034 114.765918
L 271.569611 113.580642
L 272.146188 112.80967
L 272.722765 113.044541
L 273.299342 112.862748
L 273.875919 110.715792
L 274.452496 110.49042
L 275.60565 107.018303
L 276.182227 108.254974
L 276.758804 104.359833
L 277.335381 105.32486
L 277.911958 106.058554
L 278.488535 105.516294
L 279.065112 103.324424
L 279.641688 102.9552
L 280.218265 105.484112
L 280.794842 107.22585
L 281.371419 109.835675
L 282.524573 109.338401
L 283.10115 111.036432
L 283.677727 109.405714
L 284.254304 109.642517
L 284.830881 110.375367
L 285.407458 113.527233
L 285.984035 112.492607
L 286.560612 112.824422
L 287.137189 113.763456
L 287.713766 111.978812
L 288.290342 111.146945
L 288.866919 113.786553
L 289.443496 112.845977
L 290.020073 113.018381
L 290.59665 115.920259
L 291.173227 116.199253
L 291.749804 117.433228
L 292.326381 119.27934
L 292.902958 121.849371
L 293.479535 120.729707
L 294.056112 122.189818
L 294.632689 120.28559
L 295.209266 116.080012
L 295.785843 114.453432
L 296.36242 115.804391
L 296.938996 113.72798
L 297.515573 114.305029
L 298.09215 112.90539
L 298.668727 113.367105
L 299.245304 110.80406
L 299.821881 111.65087
L 300.975035 110.825298
L 301.551612 111.285354
L 302.128189 112.533998
L 302.704766 112.444735
L 303.281343 111.491132
L 303.85792 111.106118
L 304.434497 109.374069
L 305.011074 109.397823
L 305.58765 108.180669
L 306.164227 108.857265
L 306.740804 107.182116
L 307.317381 106.41721
L 307.893958 106.74331
L 308.470535 104.18086
L 309.047112 103.58115
L 309.623689 102.485959
L 310.200266 102.036892
L 310.776843 102.02011
L 311.35342 101.803988
L 311.929997 101.205703
L 312.506574 101.881234
L 313.659728 98.623567
L 314.236305 95.183986
L 314.812881 95.562032
L 315.389458 94.912204
L 315.966035 97.22874
L 316.542612 96.878141
L 317.119189 95.779764
L 317.695766 93.107556
L 318.272343 92.64911
L 318.84892 90.739563
L 319.425497 86.467649
L 320.002074 84.041516
L 320.578651 82.941769
L 321.155228 84.486722
L 321.731805 85.281011
L 322.308382 85.014149
L 322.884959 83.467628
L 323.461535 81.174208
L 324.038112 80.698725
L 324.614689 81.429758
L 325.191266 80.520931
L 325.767843 82.519744
L 326.34442 83.455372
L 326.920997 83.741936
L 327.497574 83.158003
L 328.650728 86.198584
L 329.227305 86.557106
L 329.803882 85.672712
L 330.380459 86.719594
L 330.957036 86.948722
L 331.533613 88.448992
L 332.110189 86.656219
L 332.686766 87.008778
L 333.263343 86.370823
L 333.83992 86.097556
L 334.416497 89.864352
L 334.993074 91.175339
L 335.569651 91.846322
L 336.146228 89.68123
L 336.722805 88.243691
L 337.299382 88.206216
L 337.875959 87.560067
L 338.452536 85.631997
L 339.029113 85.430467
L 339.60569 86.898134
L 340.182267 85.972578
L 340.758843 83.027766
L 341.33542 84.76629
L 341.911997 85.639831
L 342.488574 87.162701
L 343.065151 88.094824
L 343.641728 88.101276
L 344.794882 86.664446
L 345.371459 89.114735
L 345.948036 88.82982
L 346.524613 89.483954
L 347.10119 89.12703
L 347.677767 88.912865
L 348.254344 88.410137
L 348.830921 87.336628
L 349.984074 82.37679
L 350.560651 82.809622
L 351.137228 83.384566
L 351.713805 83.026422
L 352.290382 82.309316
L 352.866959 81.372125
L 353.443536 82.747631
L 354.020113 81.612535
L 354.59669 81.985791
L 355.173267 79.830609
L 355.749844 80.638579
L 356.326421 82.947804
L 356.902998 80.517385
L 357.479575 81.694134
L 358.056152 84.632564
L 358.632728 83.787254
L 359.209305 85.831423
L 359.785882 85.713052
L 360.362459 83.569061
L 360.939036 80.763843
L 361.515613 82.933786
L 362.09219 81.946708
L 362.668767 82.24975
L 363.245344 82.350573
L 363.821921 80.197852
L 364.398498 77.107393
L 364.975075 77.835461
L 365.551652 75.694176
L 366.128229 76.775071
L 366.704806 73.969152
L 367.281382 73.609034
L 367.857959 73.556237
L 368.434536 73.774655
L 369.011113 72.520882
L 369.58769 72.318454
L 370.164267 73.843357
L 370.740844 74.531509
L 371.893998 75.426823
L 372.470575 77.669781
L 373.047152 76.294476
L 373.623729 73.363748
L 374.200306 74.523755
L 374.776883 72.967594
L 375.35346 73.410713
L 375.930036 74.48723
L 376.506613 75.208214
L 377.08319 71.975089
L 377.659767 73.731844
L 378.236344 76.644813
L 378.812921 77.297796
L 379.389498 78.447142
L 379.966075 79.346356
L 381.119229 82.48885
L 381.695806 81.282342
L 382.272383 81.675214
L 382.84896 82.817761
L 383.425537 83.201135
L 384.002114 83.416933
L 384.57869 84.217782
L 385.155267 83.50933
L 385.731844 79.930198
L 386.308421 78.375683
L 386.884998 79.765793
L 387.461575 79.561459
L 388.038152 79.189601
L 389.191306 80.057453
L 389.767883 79.685613
L 390.34446 77.71263
L 390.921037 77.596426
L 391.497614 79.59881
L 392.074191 80.734583
L 392.650768 83.140467
L 393.227344 83.105959
L 393.803921 80.621835
L 394.380498 82.780583
L 394.957075 83.001394
L 395.533652 81.886455
L 396.110229 79.574036
L 396.686806 78.27233
L 397.263383 77.308167
L 397.83996 77.759884
L 398.416537 76.485737
L 398.993114 76.518759
L 399.569691 74.385072
L 400.146268 71.56158
L 400.722845 71.432602
L 401.875998 76.170588
L 402.452575 75.945854
L 403.029152 76.752565
L 403.605729 73.853831
L 404.182306 74.750733
L 404.758883 73.622132
L 405.33546 71.816374
L 405.912037 72.626969
L 406.488614 72.896606
L 407.065191 72.781191
L 407.641768 71.984507
L 408.218345 72.460255
L 408.794922 71.060443
L 409.371499 71.724336
L 409.948076 73.777641
L 410.524653 74.546167
L 411.101229 75.617622
L 411.677806 76.013074
L 412.254383 75.535737
L 412.83096 74.013349
L 413.407537 71.613136
L 413.984114 72.922783
L 414.560691 72.629884
L 415.137268 73.489569
L 415.713845 73.283853
L 416.290422 77.380339
L 416.866999 77.040793
L 417.443576 79.032641
L 418.020153 78.646372
L 418.59673 79.179054
L 419.173307 77.186988
L 419.749883 78.814693
L 420.32646 79.343221
L 420.903037 78.72728
L 421.479614 79.394246
L 422.056191 77.822404
L 422.632768 80.277477
L 423.209345 77.330408
L 423.785922 80.789817
L 424.362499 79.896577
L 424.939076 79.730688
L 426.09223 81.370363
L 426.668807 82.896287
L 427.245384 83.385432
L 427.821961 81.168718
L 428.398537 79.769691
L 428.975114 79.12768
L 429.551691 79.431485
L 430.128268 80.834325
L 430.704845 79.838961
L 431.281422 80.957165
L 431.857999 80.972302
L 432.434576 79.260726
L 433.011153 80.665484
L 433.58773 82.380688
L 434.164307 81.985479
L 434.740884 82.404091
L 435.894038 80.411656
L 436.470615 79.608667
L 437.047191 78.399076
L 437.623768 77.808784
L 438.200345 79.423221
L 438.776922 78.505074
L 439.353499 78.204891
L 439.930076 78.504067
L 440.506653 81.207471
L 441.08323 79.789108
L 441.659807 79.992996
L 442.236384 81.805692
L 442.812961 79.491654
L 443.389538 79.092514
L 443.966115 78.989378
L 444.542692 78.07796
L 445.119269 77.678963
L 445.695845 74.664
L 446.272422 76.68219
L 446.848999 75.770199
L 447.425576 76.467274
L 448.002153 75.258171
L 448.57873 74.455442
L 449.155307 77.778334
L 450.308461 77.382095
L 450.885038 76.584076
L 451.461615 73.456612
L 452.038192 73.656179
L 453.191346 71.342114
L 453.767923 73.65701
L 454.3445 72.34906
L 455.497653 70.34719
L 456.07423 69.950125
L 456.650807 69.947131
L 457.227384 67.230723
L 457.803961 65.82411
L 458.380538 65.319002
L 458.957115 66.426691
L 459.533692 66.528811
L 460.110269 67.236282
L 460.686846 66.734638
L 461.263423 65.625772
L 461.84 64.013957
L 462.416577 64.517139
L 462.993154 63.713915
L 463.56973 64.620621
L 464.146307 64.115594
L 464.722884 66.328071
L 465.299461 67.833914
L 465.876038 67.628671
L 466.452615 66.621472
L 467.029192 66.317353
L 467.605769 65.211045
L 468.182346 65.108225
L 468.758923 67.923074
L 469.3355 68.423616
L 469.912077 68.724586
L 470.488654 66.409022
L 471.065231 67.015127
L 471.641808 68.519593
L 472.218384 68.317725
L 472.794961 68.609611
L 473.371538 69.606894
L 473.948115 68.901608
L 474.524692 66.392681
L 475.101269 64.585137
L 475.677846 65.386736
L 476.254423 65.083225
L 476.831 66.680089
L 477.407577 65.576317
L 477.984154 66.080358
L 478.560731 64.773441
L 479.137308 65.567768
L 479.713885 65.557871
L 480.290462 61.94091
L 480.867038 59.737503
L 481.443615 59.833607
L 482.596769 63.155038
L 483.173346 60.237796
L 483.749923 60.838938
L 484.3265 60.227103
L 484.903077 58.93009
L 485.479654 59.335658
L 486.056231 57.625525
L 486.632808 58.326168
L 487.209385 55.110272
L 487.785962 55.109205
L 488.362539 54.701297
L 488.939116 55.396089
L 489.515692 54.691941
L 490.092269 54.692069
L 490.668846 52.084487
L 491.245423 53.889928
L 491.822 56.403909
L 492.398577 55.903766
L 492.975154 56.114371
L 493.551731 55.208366
L 494.128308 51.981992
L 494.704885 53.087932
L 495.281462 53.688887
L 495.858039 54.504244
L 496.434616 54.801985
L 497.011193 55.706753
L 497.58777 54.106159
L 498.164347 53.00264
L 498.740923 54.322819
L 499.3175 54.924634
L 499.894077 54.711935
L 500.470654 52.901514
L 501.047231 50.391435
L 501.623808 50.987294
L 502.200385 48.785447
L 502.776962 48.673957
L 503.353539 49.47786
L 503.930116 49.677213
L 504.506693 49.180269
L 505.659847 50.586335
L 506.236424 49.691482
L 506.813001 48.278102
L 507.389577 47.16136
L 507.966154 47.6698
L 508.542731 45.767396
L 509.119308 45.96619
L 509.695885 45.367414
L 510.272462 46.364238
L 510.849039 43.457505
L 511.425616 43.258086
L 512.002193 41.446681
L 512.57877 43.554754
L 513.155347 44.863608
L 513.731924 44.470966
L 514.308501 44.477409
L 514.885078 42.768218
L 515.461655 41.961735
L 516.038231 39.853155
L 516.614808 39.342819
L 517.191385 38.536747
L 517.767962 36.531318
L 518.344539 37.234307
L 518.921116 38.233386
L 519.497693 36.730924
L 520.07427 35.717439
L 520.650847 36.937851
L 521.227424 36.738011
L 521.804001 37.63317
L 522.380578 36.501532
L 522.957155 34.898125
L 523.533732 36.310561
L 524.110309 39.335375
L 524.686885 37.819002
L 525.263462 38.211644
L 525.840039 39.431283
L 526.993193 41.354623
L 527.56977 42.959692
L 528.146347 42.967243
L 528.722924 40.148051
L 529.299501 39.030108
L 529.876078 37.321784
L 530.452655 38.822127
L 531.029232 39.922166
L 531.605809 39.532651
L 532.182386 40.842024
L 533.335539 45.262487
L 533.912116 44.24614
L 535.06527 40.016875
L 535.641847 40.338868
L 536.218424 37.831782
L 536.795001 38.534097
L 537.371578 38.230321
L 537.916989 35.810977
L 537.916989 35.810977
" clip-path="url(#pbdd79da105)" style="fill: none; stroke: #176b87; stroke-width: 2.2; stroke-linecap: square"/>
   </g>
   <g id="patch_3">
    <path d="M 46.965625 299.078125
L 46.965625 22.318125
" style="fill: none; stroke: #000000; stroke-width: 0.8; stroke-linejoin: miter; stroke-linecap: square"/>
   </g>
   <g id="patch_4">
    <path d="M 561.295625 299.078125
L 561.295625 22.318125
" style="fill: none; stroke: #000000; stroke-width: 0.8; stroke-linejoin: miter; stroke-linecap: square"/>
   </g>
   <g id="patch_5">
    <path d="M 46.965625 299.078125
L 561.295625 299.078125
" style="fill: none; stroke: #000000; stroke-width: 0.8; stroke-linejoin: miter; stroke-linecap: square"/>
   </g>
   <g id="patch_6">
    <path d="M 46.965625 22.318125
L 561.295625 22.318125
" style="fill: none; stroke: #000000; stroke-width: 0.8; stroke-linejoin: miter; stroke-linecap: square"/>
   </g>
   <g id="text_15">
    <g id="patch_7">
     <path d="M 365.850225 271.446613
L 475.681475 271.446613
Q 479.181475 271.446613 479.181475 267.946613
L 479.181475 258.268487
Q 479.181475 254.768488 475.681475 254.768488
L 365.850225 254.768488
Q 362.350225 254.768488 362.350225 258.268487
L 362.350225 267.946613
Q 362.350225 271.446613 365.850225 271.446613
z
" style="fill: #ffffff; stroke: #176b87; stroke-linejoin: miter"/>
    </g>
    <!-- Raw Qini AUC: 331.77 -->
    <g transform="translate(365.850225 265.866925) scale(0.1 -0.1)">
     <defs>
      <path id="DejaVuSans-52" d="M 2841 2188
Q 3044 2119 3236 1894
Q 3428 1669 3622 1275
L 4263 0
L 3584 0
L 2988 1197
Q 2756 1666 2539 1819
Q 2322 1972 1947 1972
L 1259 1972
L 1259 0
L 628 0
L 628 4666
L 2053 4666
Q 2853 4666 3247 4331
Q 3641 3997 3641 3322
Q 3641 2881 3436 2590
Q 3231 2300 2841 2188
z
M 1259 4147
L 1259 2491
L 2053 2491
Q 2509 2491 2742 2702
Q 2975 2913 2975 3322
Q 2975 3731 2742 3939
Q 2509 4147 2053 4147
L 1259 4147
z
" transform="scale(0.015625)"/>
      <path id="DejaVuSans-77" d="M 269 3500
L 844 3500
L 1563 769
L 2278 3500
L 2956 3500
L 3675 769
L 4391 3500
L 4966 3500
L 4050 0
L 3372 0
L 2619 2869
L 1863 0
L 1184 0
L 269 3500
z
" transform="scale(0.015625)"/>
      <path id="DejaVuSans-51" d="M 2522 4238
Q 1834 4238 1429 3725
Q 1025 3213 1025 2328
Q 1025 1447 1429 934
Q 1834 422 2522 422
Q 3209 422 3611 934
Q 4013 1447 4013 2328
Q 4013 3213 3611 3725
Q 3209 4238 2522 4238
z
M 3406 84
L 4238 -825
L 3475 -825
L 2784 -78
Q 2681 -84 2626 -87
Q 2572 -91 2522 -91
Q 1538 -91 948 567
Q 359 1225 359 2328
Q 359 3434 948 4092
Q 1538 4750 2522 4750
Q 3503 4750 4090 4092
Q 4678 3434 4678 2328
Q 4678 1516 4351 937
Q 4025 359 3406 84
z
" transform="scale(0.015625)"/>
      <path id="DejaVuSans-41" d="M 2188 4044
L 1331 1722
L 3047 1722
L 2188 4044
z
M 1831 4666
L 2547 4666
L 4325 0
L 3669 0
L 3244 1197
L 1141 1197
L 716 0
L 50 0
L 1831 4666
z
" transform="scale(0.015625)"/>
      <path id="DejaVuSans-55" d="M 556 4666
L 1191 4666
L 1191 1831
Q 1191 1081 1462 751
Q 1734 422 2344 422
Q 2950 422 3222 751
Q 3494 1081 3494 1831
L 3494 4666
L 4128 4666
L 4128 1753
Q 4128 841 3676 375
Q 3225 -91 2344 -91
Q 1459 -91 1007 375
Q 556 841 556 1753
L 556 4666
z
" transform="scale(0.015625)"/>
      <path id="DejaVuSans-43" d="M 4122 4306
L 4122 3641
Q 3803 3938 3442 4084
Q 3081 4231 2675 4231
Q 1875 4231 1450 3742
Q 1025 3253 1025 2328
Q 1025 1406 1450 917
Q 1875 428 2675 428
Q 3081 428 3442 575
Q 3803 722 4122 1019
L 4122 359
Q 3791 134 3420 21
Q 3050 -91 2638 -91
Q 1578 -91 968 557
Q 359 1206 359 2328
Q 359 3453 968 4101
Q 1578 4750 2638 4750
Q 3056 4750 3426 4639
Q 3797 4528 4122 4306
z
" transform="scale(0.015625)"/>
      <path id="DejaVuSans-3a" d="M 750 794
L 1409 794
L 1409 0
L 750 0
L 750 794
z
M 750 3309
L 1409 3309
L 1409 2516
L 750 2516
L 750 3309
z
" transform="scale(0.015625)"/>
      <path id="DejaVuSans-37" d="M 525 4666
L 3525 4666
L 3525 4397
L 1831 0
L 1172 0
L 2766 4134
L 525 4134
L 525 4666
z
" transform="scale(0.015625)"/>
     </defs>
     <use xlink:href="#DejaVuSans-52"/>
     <use xlink:href="#DejaVuSans-61" transform="translate(67.232422 0)"/>
     <use xlink:href="#DejaVuSans-77" transform="translate(128.511719 0)"/>
     <use xlink:href="#DejaVuSans-20" transform="translate(210.298828 0)"/>
     <use xlink:href="#DejaVuSans-51" transform="translate(242.085938 0)"/>
     <use xlink:href="#DejaVuSans-69" transform="translate(320.796875 0)"/>
     <use xlink:href="#DejaVuSans-6e" transform="translate(348.580078 0)"/>
     <use xlink:href="#DejaVuSans-69" transform="translate(411.958984 0)"/>
     <use xlink:href="#DejaVuSans-20" transform="translate(439.742188 0)"/>
     <use xlink:href="#DejaVuSans-41" transform="translate(471.529297 0)"/>
     <use xlink:href="#DejaVuSans-55" transform="translate(539.9375 0)"/>
     <use xlink:href="#DejaVuSans-43" transform="translate(613.130859 0)"/>
     <use xlink:href="#DejaVuSans-3a" transform="translate(682.955078 0)"/>
     <use xlink:href="#DejaVuSans-20" transform="translate(716.646484 0)"/>
     <use xlink:href="#DejaVuSans-33" transform="translate(748.433594 0)"/>
     <use xlink:href="#DejaVuSans-33" transform="translate(812.056641 0)"/>
     <use xlink:href="#DejaVuSans-31" transform="translate(875.679688 0)"/>
     <use xlink:href="#DejaVuSans-2e" transform="translate(939.302734 0)"/>
     <use xlink:href="#DejaVuSans-37" transform="translate(971.089844 0)"/>
     <use xlink:href="#DejaVuSans-37" transform="translate(1034.712891 0)"/>
    </g>
   </g>
   <g id="text_16">
    <!-- AutoLift Champion Held-out Qini Curve -->
    <g transform="translate(187.395937 16.318125) scale(0.12 -0.12)">
     <defs>
      <path id="DejaVuSans-4c" d="M 628 4666
L 1259 4666
L 1259 531
L 3531 531
L 3531 0
L 628 0
L 628 4666
z
" transform="scale(0.015625)"/>
      <path id="DejaVuSans-68" d="M 3513 2113
L 3513 0
L 2938 0
L 2938 2094
Q 2938 2591 2744 2837
Q 2550 3084 2163 3084
Q 1697 3084 1428 2787
Q 1159 2491 1159 1978
L 1159 0
L 581 0
L 581 4863
L 1159 4863
L 1159 2956
Q 1366 3272 1645 3428
Q 1925 3584 2291 3584
Q 2894 3584 3203 3211
Q 3513 2838 3513 2113
z
" transform="scale(0.015625)"/>
      <path id="DejaVuSans-48" d="M 628 4666
L 1259 4666
L 1259 2753
L 3553 2753
L 3553 4666
L 4184 4666
L 4184 0
L 3553 0
L 3553 2222
L 1259 2222
L 1259 0
L 628 0
L 628 4666
z
" transform="scale(0.015625)"/>
      <path id="DejaVuSans-2d" d="M 313 2009
L 1997 2009
L 1997 1497
L 313 1497
L 313 2009
z
" transform="scale(0.015625)"/>
      <path id="DejaVuSans-76" d="M 191 3500
L 800 3500
L 1894 563
L 2988 3500
L 3597 3500
L 2284 0
L 1503 0
L 191 3500
z
" transform="scale(0.015625)"/>
     </defs>
     <use xlink:href="#DejaVuSans-41"/>
     <use xlink:href="#DejaVuSans-75" transform="translate(68.408203 0)"/>
     <use xlink:href="#DejaVuSans-74" transform="translate(131.787109 0)"/>
     <use xlink:href="#DejaVuSans-6f" transform="translate(170.996094 0)"/>
     <use xlink:href="#DejaVuSans-4c" transform="translate(232.177734 0)"/>
     <use xlink:href="#DejaVuSans-69" transform="translate(287.890625 0)"/>
     <use xlink:href="#DejaVuSans-66" transform="translate(315.673828 0)"/>
     <use xlink:href="#DejaVuSans-74" transform="translate(349.128906 0)"/>
     <use xlink:href="#DejaVuSans-20" transform="translate(388.337891 0)"/>
     <use xlink:href="#DejaVuSans-43" transform="translate(420.125 0)"/>
     <use xlink:href="#DejaVuSans-68" transform="translate(489.949219 0)"/>
     <use xlink:href="#DejaVuSans-61" transform="translate(553.328125 0)"/>
     <use xlink:href="#DejaVuSans-6d" transform="translate(614.607422 0)"/>
     <use xlink:href="#DejaVuSans-70" transform="translate(712.019531 0)"/>
     <use xlink:href="#DejaVuSans-69" transform="translate(775.496094 0)"/>
     <use xlink:href="#DejaVuSans-6f" transform="translate(803.279297 0)"/>
     <use xlink:href="#DejaVuSans-6e" transform="translate(864.460938 0)"/>
     <use xlink:href="#DejaVuSans-20" transform="translate(927.839844 0)"/>
     <use xlink:href="#DejaVuSans-48" transform="translate(959.626953 0)"/>
     <use xlink:href="#DejaVuSans-65" transform="translate(1034.822266 0)"/>
     <use xlink:href="#DejaVuSans-6c" transform="translate(1096.345703 0)"/>
     <use xlink:href="#DejaVuSans-64" transform="translate(1124.128906 0)"/>
     <use xlink:href="#DejaVuSans-2d" transform="translate(1187.605469 0)"/>
     <use xlink:href="#DejaVuSans-6f" transform="translate(1225.564453 0)"/>
     <use xlink:href="#DejaVuSans-75" transform="translate(1286.746094 0)"/>
     <use xlink:href="#DejaVuSans-74" transform="translate(1350.125 0)"/>
     <use xlink:href="#DejaVuSans-20" transform="translate(1389.333984 0)"/>
     <use xlink:href="#DejaVuSans-51" transform="translate(1421.121094 0)"/>
     <use xlink:href="#DejaVuSans-69" transform="translate(1499.832031 0)"/>
     <use xlink:href="#DejaVuSans-6e" transform="translate(1527.615234 0)"/>
     <use xlink:href="#DejaVuSans-69" transform="translate(1590.994141 0)"/>
     <use xlink:href="#DejaVuSans-20" transform="translate(1618.777344 0)"/>
     <use xlink:href="#DejaVuSans-43" transform="translate(1650.564453 0)"/>
     <use xlink:href="#DejaVuSans-75" transform="translate(1720.388672 0)"/>
     <use xlink:href="#DejaVuSans-72" transform="translate(1783.767578 0)"/>
     <use xlink:href="#DejaVuSans-76" transform="translate(1824.880859 0)"/>
     <use xlink:href="#DejaVuSans-65" transform="translate(1884.060547 0)"/>
    </g>
   </g>
  </g>
 </g>
 <defs>
  <clipPath id="pbdd79da105">
   <rect x="46.965625" y="22.318125" width="514.33" height="276.76"/>
  </clipPath>
 </defs>
</svg>
